<svg width="15" height="18" viewBox="0 0 15 18" fill="none" xmlns="http://www.w3.org/2000/svg">
<path d="M14.3108 6.1362C14.2064 6.2172 12.3632 7.2558 12.3632 9.5652C12.3632 12.2364 14.7086 13.1814 14.7788 13.2048C14.768 13.2624 14.4062 14.499 13.5422 15.759C12.7718 16.8678 11.9672 17.9748 10.7432 17.9748C9.5192 17.9748 9.2042 17.2638 7.7912 17.2638C6.4142 17.2638 5.9246 17.9982 4.805 17.9982C3.6854 17.9982 2.9042 16.9722 2.006 15.7122C0.9656 14.2326 0.125 11.934 0.125 9.7524C0.125 6.2532 2.4002 4.3974 4.6394 4.3974C5.8292 4.3974 6.821 5.1786 7.568 5.1786C8.279 5.1786 9.3878 4.3506 10.7414 4.3506C11.2544 4.3506 13.0976 4.3974 14.3108 6.1362ZM10.0988 2.8692C10.6586 2.205 11.0546 1.2834 11.0546 0.3618C11.0546 0.234 11.0438 0.1044 11.0204 0C10.1096 0.0342 9.026 0.6066 8.3726 1.3644C7.8596 1.9476 7.3808 2.8692 7.3808 3.8034C7.3808 3.9438 7.4042 4.0842 7.415 4.1292C7.4726 4.14 7.5662 4.1526 7.6598 4.1526C8.477 4.1526 9.5048 3.6054 10.0988 2.8692Z" fill="#1F2937"/>
</svg>
