<svg width="18" height="18" viewBox="0 0 18 18" fill="none" xmlns="http://www.w3.org/2000/svg">
<g clip-path="url(#clip0_195_896)">
<path d="M9 18.0012C13.9706 18.0012 18 13.9718 18 9.00122C18 4.03066 13.9706 0.0012207 9 0.0012207C4.02944 0.0012207 0 4.03066 0 9.00122C0 13.9718 4.02944 18.0012 9 18.0012Z" fill="#1977F3"/>
<path d="M12.5033 11.6033L12.902 9.00117H10.4061V7.3128C10.4061 6.60151 10.7542 5.90667 11.873 5.90667H13.0083V3.69179C13.0083 3.69179 11.9781 3.51587 10.9934 3.51587C8.93797 3.51587 7.59386 4.76126 7.59386 7.01791V9.00117H5.30811V11.6033H7.59386V17.8923C8.05202 17.9645 8.52158 18.0012 8.99999 18.0012C9.4784 18.0012 9.94796 17.9632 10.4061 17.8923V11.6033H12.5033Z" fill="white"/>
</g>
<defs>
<clipPath id="clip0_195_896">
<rect width="18" height="18" rx="9" fill="white"/>
</clipPath>
</defs>
</svg>
