<svg width="18" height="18" viewBox="0 0 18 18" fill="none" xmlns="http://www.w3.org/2000/svg">
<g clip-path="url(#clip0_195_1258)">
<path d="M17.617 9.20242C17.617 8.45992 17.5609 7.91992 17.426 7.35742H8.98828V10.6987H13.9431C13.842 11.5312 13.3027 12.7799 12.1005 13.6237L12.0892 13.7362L14.752 15.8062L14.9318 15.8287C16.6396 14.2537 17.617 11.9362 17.617 9.20242Z" fill="#4285F4"/>
<path d="M8.98835 18.0001C11.4152 18.0001 13.4488 17.2013 14.9431 15.8176L12.1118 13.6126C11.3478 14.1413 10.3366 14.5126 8.99958 14.5126C6.61769 14.5126 4.60656 12.9376 3.8875 10.7776L3.78638 10.7888L1.00001 12.9376L0.966309 13.0388C2.43814 15.9751 5.47168 18.0001 8.98835 18.0001Z" fill="#34A853"/>
<path d="M3.87619 10.7775C3.68519 10.215 3.57284 9.61876 3.57284 9.00001C3.57284 8.38126 3.68519 7.78501 3.86496 7.22251V7.09876L1.05612 4.91626L0.96624 4.96126C0.348296 6.17626 0 7.54876 0 9.00001C0 10.4513 0.348296 11.8238 0.955004 13.0388L3.87619 10.7775Z" fill="#FBBC05"/>
<path d="M8.98835 3.47625C10.6737 3.47625 11.8197 4.2075 12.4601 4.815L14.9993 2.34C13.4375 0.88875 11.4152 0 8.98835 0C5.47169 0 2.43814 2.025 0.955078 4.96125L3.86503 7.2225C4.59533 5.05125 6.60646 3.47625 8.98835 3.47625Z" fill="#EB4335"/>
</g>
<defs>
<clipPath id="clip0_195_1258">
<rect width="18" height="18" rx="9" fill="white"/>
</clipPath>
</defs>
</svg>
