<svg width="30" height="28" viewBox="0 0 30 28" fill="none" xmlns="http://www.w3.org/2000/svg">
<path d="M10.135 27.7499C10.27 27.7499 10.4 27.6949 10.495 27.5999C10.59 27.5049 10.64 27.3749 10.635 27.2399C10.635 27.1899 10.595 26.0349 9.83503 25.3149C9.51003 25.0099 9.11503 24.8249 8.65503 24.7749L7.38003 21.1049C8.45003 20.5199 9.27003 19.2399 9.62503 18.5999C11.35 19.0399 13 18.8699 14.27 18.5599C14.53 19.4349 14.95 20.4099 15.28 21.1099C15.465 21.4999 15.55 21.9349 15.535 22.3749L15.36 27.2399C15.36 27.3749 15.405 27.5099 15.5 27.6049C15.595 27.6999 15.725 27.7599 15.86 27.7599H21.76C22.035 27.7599 22.26 27.5349 22.26 27.2599C22.26 26.0049 21.27 25.3749 20.49 25.1299L20.65 22.1899C20.655 22.0549 20.71 21.9249 20.795 21.8299C22.26 20.1899 22.33 16.1649 22.32 14.9799C22.56 14.8549 22.775 14.7149 22.975 14.5699V15.5749C22.975 16.108 23.1868 16.6193 23.5637 16.9962C23.9407 17.3732 24.4519 17.5849 24.985 17.5849C25.5181 17.5849 26.0294 17.3732 26.4063 16.9962C26.7833 16.6193 26.995 16.108 26.995 15.5749V5.47994C27.095 5.49994 27.16 5.52994 27.205 5.55994C27.77 5.93994 28.575 5.78994 28.99 5.22494C29.33 4.75994 29.505 4.21994 29.505 3.57994C29.5 3.49994 29.425 2.77994 28.775 2.24994C28.24 1.81494 27.5 1.64994 26.53 1.77494C26.515 1.77494 26.11 1.82994 25.535 1.28494C24.94 0.574942 23.415 -0.360058 21.595 0.779942C21.105 0.519942 20.11 0.124942 19.255 0.634942C19.135 0.709942 19.05 0.829942 19.02 0.969942C19.015 1.00994 18.845 1.90994 19.405 2.67994C19.735 3.13494 20.23 3.43994 20.88 3.58994V7.01494C20.87 7.23494 20.68 9.15994 18.48 9.04994C18.43 9.04994 17.25 8.90994 16.39 7.14994C16.335 7.01994 15.02 3.98994 12.595 3.19994C11.17 2.73494 9.84503 2.88994 8.85503 3.63494C8.08003 4.21994 7.35503 5.07994 6.69003 6.19494C6.39003 6.58494 5.48003 7.50994 4.59503 7.50994H4.57003C4.51003 7.50994 3.39003 7.52494 2.34003 8.69994C0.675034 10.5649 0.130034 14.1449 0.730034 19.3399C0.730034 19.3649 0.740034 19.3899 0.745034 19.4149L2.96003 27.3849C3.02003 27.5999 3.21503 27.7499 3.44003 27.7499H10.13H10.135ZM21.44 2.67494C20.86 2.60494 20.45 2.40994 20.22 2.09994C20.045 1.86494 20 1.59494 19.99 1.40494C20.57 1.27994 21.315 1.77494 21.32 1.77994C21.495 1.90494 21.73 1.89994 21.905 1.77494C23.55 0.569942 24.66 1.79994 24.78 1.94494C24.79 1.95994 24.805 1.97494 24.82 1.98994C25.385 2.53494 25.9 2.71494 26.26 2.76494C26.08 3.21494 25.93 3.82994 25.96 4.58994C25.685 4.66494 25.395 4.77494 25.09 4.92494C25.04 4.94494 23.865 5.48494 24.005 6.92994V10.8199C24.005 10.8799 24.02 11.7899 23.395 12.7349L20.88 9.26494C21.805 8.38994 21.88 7.12994 21.885 7.05494V3.18494C21.885 2.93494 21.695 2.71994 21.445 2.68994L21.44 2.67494ZM9.45003 4.43494C10.425 3.70494 11.64 3.93994 12.28 4.14994C12.77 4.30994 13.21 4.59494 13.6 4.93494V9.91994C13.2574 10.0096 12.9448 10.1888 12.6944 10.4393C12.4439 10.6897 12.2647 11.0023 12.175 11.3449H10.065C9.97538 11.0023 9.79613 10.6897 9.54569 10.4393C9.29526 10.1888 8.98267 10.0096 8.64003 9.91994V5.19494C8.90503 4.89994 9.17503 4.63994 9.45003 4.42994V4.43494ZM7.50003 6.77994L7.53003 6.73494C7.56503 6.67494 7.60503 6.61994 7.64003 6.56494V10.3649C7.64003 10.6399 7.86503 10.8649 8.14003 10.8649C8.68503 10.8649 9.13003 11.3099 9.13003 11.8549C9.13003 12.1299 9.35503 12.3549 9.63003 12.3549H12.61C12.885 12.3549 13.11 12.1299 13.11 11.8549C13.11 11.3099 13.555 10.8649 14.1 10.8649C14.375 10.8649 14.6 10.6399 14.6 10.3649V6.06494C15.16 6.83994 15.465 7.54494 15.48 7.56994C15.51 7.62994 15.54 7.68494 15.57 7.73994V13.2149H6.67003V7.62994C7.16003 7.21994 7.47503 6.81494 7.50003 6.77994ZM6.60503 20.3499C6.47503 20.3899 6.37003 20.4799 6.30503 20.5999C6.24003 20.7199 6.23503 20.8599 6.28003 20.9899L7.81503 25.4199C7.88503 25.6249 8.08003 25.7499 8.30003 25.7549C9.11503 25.7349 9.42003 26.2999 9.54503 26.7499H7.66003C7.57503 26.3349 7.38503 25.7449 6.92503 25.3099C6.60503 25.0049 6.21503 24.8249 5.76003 24.7699L4.47503 20.5299C5.84503 20.0049 6.92003 18.4649 7.40003 17.6699C7.81503 17.9199 8.23003 18.1199 8.64503 18.2799C8.21003 19.0149 7.42503 20.0899 6.60003 20.3449L6.60503 20.3499ZM16.19 20.6799C15.93 20.1299 15.49 19.1399 15.235 18.2799C15.555 18.1749 15.835 18.0649 16.06 17.9699C16.265 18.9399 16.775 20.1599 17.22 21.1099C17.405 21.4999 17.49 21.9349 17.475 22.3749L17.315 26.7599H16.38L16.535 22.4149C16.555 21.8199 16.435 21.2249 16.185 20.6899L16.19 20.6799ZM21.605 14.2099C21.42 14.2949 21.305 14.4799 21.315 14.6799C21.365 16.0349 21.235 19.8299 20.05 21.1549C19.8133 21.4248 19.6742 21.7665 19.655 22.1249L19.475 25.4799C19.46 25.7349 19.645 25.9649 19.9 25.9999C19.945 26.0049 20.815 26.1449 21.14 26.7449H18.32L18.475 22.3999C18.495 21.8049 18.375 21.2099 18.125 20.6749C17.39 19.1149 16.97 17.8549 16.97 17.2149C16.97 17.0399 16.875 16.8749 16.725 16.7849C16.575 16.6949 16.385 16.6899 16.23 16.7749C16.185 16.7999 11.5 19.2999 7.51503 16.5449C7.39503 16.4649 7.24503 16.4399 7.11003 16.4699C6.97003 16.5049 6.85503 16.5999 6.78503 16.7299C6.40503 17.4799 5.11503 19.4699 3.77503 19.6899C3.7046 19.7016 3.63745 19.7281 3.57805 19.7677C3.51865 19.8073 3.46835 19.8591 3.43052 19.9196C3.39268 19.9802 3.36816 20.0481 3.3586 20.1188C3.34903 20.1896 3.35463 20.2615 3.37503 20.3299L4.91003 25.3949C4.97503 25.6099 5.18503 25.7549 5.40503 25.7499C6.22503 25.7299 6.52503 26.2949 6.65003 26.7449H3.82503L1.72503 19.1799C1.03503 13.1599 2.06503 10.5399 3.05503 9.39994C3.80503 8.53494 4.54503 8.50494 4.56003 8.50494H4.60003C4.98003 8.50494 5.34003 8.40494 5.67003 8.25994V15.0899C5.67003 15.3649 5.89503 15.5899 6.17003 15.5899C6.44503 15.5899 6.67003 15.3649 6.67003 15.0899V14.2099H7.65003V15.0899C7.65003 15.3649 7.87503 15.5899 8.15003 15.5899C8.42503 15.5899 8.65003 15.3649 8.65003 15.0899V14.2099H9.63003V15.0899C9.63003 15.3649 9.85503 15.5899 10.13 15.5899C10.405 15.5899 10.63 15.3649 10.63 15.0899V14.2099H11.61V15.0899C11.61 15.3649 11.835 15.5899 12.11 15.5899C12.385 15.5899 12.61 15.3649 12.61 15.0899V14.2099H13.59V15.0899C13.59 15.3649 13.815 15.5899 14.09 15.5899C14.365 15.5899 14.59 15.3649 14.59 15.0899V14.2099H15.57V15.0899C15.57 15.3649 15.795 15.5899 16.07 15.5899C16.345 15.5899 16.57 15.3649 16.57 15.0899V9.09494C17.48 9.95994 18.35 10.0399 18.405 10.0399C19.015 10.0749 19.56 9.98994 20.03 9.78994L22.71 13.4899C22.415 13.7499 22.05 13.9949 21.6 14.1999L21.605 14.2099ZM24.985 16.5799C24.43 16.5799 23.975 16.1249 23.975 15.5699V13.6899C23.975 13.6899 23.97 13.6549 23.965 13.6349C25.035 12.2999 25 10.8599 25 10.7899V6.86994C24.925 6.11994 25.44 5.85494 25.505 5.81994C25.69 5.73494 25.845 5.66994 25.995 5.61994V15.5649C25.995 16.1199 25.54 16.5749 24.985 16.5749V16.5799ZM27.755 4.72994C27.525 4.57494 27.255 4.48494 26.955 4.46494C26.935 3.61494 27.2 3.02994 27.37 2.74994C27.68 2.77994 27.94 2.86494 28.13 3.01494C28.45 3.26494 28.5 3.61994 28.505 3.61994C28.505 3.99994 28.395 4.33994 28.185 4.62994C28.085 4.76994 27.89 4.81494 27.76 4.72994H27.755Z" fill="#6B7280"/>
</svg>
