<svg width="30" height="26" viewBox="0 0 30 26" fill="none" xmlns="http://www.w3.org/2000/svg">
<path d="M23.8464 1.32796C23.7177 1.07162 23.3674 0.951955 23.1104 1.07796C22.5127 1.27996 17.333 2.88529 10.4024 0.459622L10.401 0.462955C10.3357 0.441388 10.2675 0.429923 10.1987 0.428955C10.1222 0.432051 10.0473 0.451154 9.97868 0.48503C9.91006 0.518907 9.84932 0.566802 9.80037 0.625622L2.52571 9.33229C2.44304 9.43094 2.39783 9.55559 2.39804 9.68429V13.7963H0.882041C0.579041 13.7963 0.333374 14.042 0.333374 14.345V25.0223C0.333374 25.3253 0.579041 25.571 0.882041 25.571H29.1184C29.4214 25.571 29.667 25.3253 29.667 25.0223V10.34C29.667 10.2326 29.6357 10.1283 29.5767 10.038L23.8464 1.32796ZM19.3584 11.594L22.292 16.2763L19.3584 16.1696V11.594ZM19.8434 10.3L28.5697 10.855V16.5043L23.6174 16.3243L19.8434 10.3ZM23.1237 2.22662L28.0554 9.72262L19.0527 9.14996L12.1284 2.13029C17.691 3.56729 21.8174 2.61596 23.1237 2.22662ZM3.49504 9.88362L10.255 1.79329L18.2614 9.90929V16.1503H15.2347L15.516 12.4456C15.5232 12.3498 15.5052 12.2539 15.4638 12.1672C15.4224 12.0805 15.3591 12.0062 15.28 11.9516C15.2554 11.9346 12.9147 10.315 10.6087 8.16562L10.572 8.07362C10.5318 7.97223 10.4621 7.88519 10.372 7.82371C10.2819 7.76222 10.1755 7.72911 10.0664 7.72862H10.0627C10.0334 7.72862 10.0047 7.73129 9.97671 7.73562C9.91627 7.73061 9.85542 7.73511 9.79637 7.74896C9.70649 7.77165 9.62367 7.81635 9.55535 7.87902C9.48704 7.94169 9.43539 8.02036 9.40504 8.10796C9.39971 8.12396 8.80471 9.73829 5.04904 11.5053C4.95003 11.5519 4.86725 11.6272 4.81135 11.7213C4.75545 11.8154 4.72899 11.924 4.73537 12.0333L4.96804 16.15H3.49471L3.49504 9.88362ZM5.85237 12.3383C6.94504 11.8016 7.78137 11.2756 8.42071 10.7916L6.18837 16.1503H6.06671L5.85237 12.3383ZM10.053 9.72896L12.6247 16.1503H7.37771L10.053 9.72896ZM13.8064 16.1503L11.5164 10.4313C12.448 11.2145 13.409 11.9621 14.3974 12.6723L14.133 16.1503H13.8064ZM1.43037 24.4736V14.8933H2.39804V16.6986C2.39804 17.0016 2.64371 17.2473 2.94671 17.2473H18.79L22.996 17.4L25.7254 21.756C25.7666 21.8219 25.8214 21.8782 25.8861 21.9214C25.9508 21.9645 26.0239 21.9935 26.1006 22.0063C26.1773 22.019 26.2558 22.0154 26.331 21.9956C26.4062 21.9758 26.4763 21.9402 26.5367 21.8913L27.63 21.006C27.743 20.9141 27.815 20.7812 27.8302 20.6364C27.8454 20.4916 27.8027 20.3467 27.7114 20.2333C27.666 20.1771 27.6101 20.1305 27.5467 20.096C27.4833 20.0615 27.4137 20.0399 27.3419 20.0323C27.2701 20.0247 27.1976 20.0314 27.1284 20.052C27.0592 20.0725 26.9947 20.1065 26.9387 20.152L26.3267 20.6476L24.322 17.4476L28.57 17.602V24.4733L1.43037 24.4736Z" fill="#6B7280"/>
<path d="M6.53243 19.6747H5.7391C5.59358 19.6747 5.45403 19.7325 5.35113 19.8354C5.24824 19.9383 5.19043 20.0778 5.19043 20.2233C5.19043 20.3689 5.24824 20.5084 5.35113 20.6113C5.45403 20.7142 5.59358 20.772 5.7391 20.772H6.53243C6.67795 20.772 6.8175 20.7142 6.9204 20.6113C7.02329 20.5084 7.0811 20.3689 7.0811 20.2233C7.0811 20.0778 7.02329 19.9383 6.9204 19.8354C6.8175 19.7325 6.67795 19.6747 6.53243 19.6747ZM14.2511 19.6747H11.4398C11.2942 19.6747 11.1547 19.7325 11.0518 19.8354C10.9489 19.9383 10.8911 20.0778 10.8911 20.2233C10.8911 20.3689 10.9489 20.5084 11.0518 20.6113C11.1547 20.7142 11.2942 20.772 11.4398 20.772H14.2511C14.3966 20.772 14.5362 20.7142 14.6391 20.6113C14.742 20.5084 14.7998 20.3689 14.7998 20.2233C14.7998 20.0778 14.742 19.9383 14.6391 19.8354C14.5362 19.7325 14.3966 19.6747 14.2511 19.6747ZM20.5804 22.1153H19.1744C19.0289 22.1153 18.8894 22.1732 18.7865 22.276C18.6836 22.3789 18.6258 22.5185 18.6258 22.664C18.6258 22.8095 18.6836 22.9491 18.7865 23.052C18.8894 23.1549 19.0289 23.2127 19.1744 23.2127H20.5804C20.7259 23.2127 20.8655 23.1549 20.9684 23.052C21.0713 22.9491 21.1291 22.8095 21.1291 22.664C21.1291 22.5185 21.0713 22.3789 20.9684 22.276C20.8655 22.1732 20.7259 22.1153 20.5804 22.1153Z" fill="#6B7280"/>
</svg>
