<svg width="27" height="29" viewBox="0 0 27 29" fill="none" xmlns="http://www.w3.org/2000/svg">
<path d="M10 17H3.67214L2.99464 12.4268L2.00539 12.5733L2.6612 17H1.00001C0.932442 17 0.865571 17.0137 0.803439 17.0403C0.741307 17.0668 0.685204 17.1057 0.638519 17.1546C0.591834 17.2034 0.555536 17.2612 0.531817 17.3245C0.508097 17.3878 0.497449 17.4552 0.500515 17.5227L1.00052 28.5227C1.00635 28.6512 1.06153 28.7726 1.15457 28.8615C1.2476 28.9504 1.37133 29 1.50001 29H9.50002C9.6287 29 9.75243 28.9504 9.84546 28.8615C9.9385 28.7726 9.99368 28.6512 9.99952 28.5227L10.4995 17.5227C10.5026 17.4552 10.4919 17.3878 10.4682 17.3245C10.4445 17.2612 10.4082 17.2034 10.3615 17.1546C10.3148 17.1057 10.2587 17.0668 10.1966 17.0403C10.1345 17.0137 10.0676 17 10 17ZM2.80933 18L3.10983 20.0282C2.58381 20.088 2.07978 20.273 1.63995 20.5676L1.52326 18H2.80933ZM9.0222 28H1.97783L1.69251 21.7233C1.78722 21.6646 1.88098 21.6044 1.97376 21.5428C2.34789 21.2967 2.68001 21.0796 3.25639 21.0178L4.00533 26.073L4.99458 25.9265L4.27583 21.0759C4.65976 21.1719 4.92895 21.3481 5.22445 21.5425C5.72833 21.8738 6.29945 22.2498 7.39945 22.2498C7.83555 22.257 8.26922 22.1833 8.67845 22.0324L8.3217 21.0983C8.02642 21.206 7.7136 21.2574 7.39939 21.25C6.59939 21.25 6.21689 20.9985 5.77439 20.7073C5.35708 20.4328 4.89277 20.1286 4.12145 20.0319L3.82033 18H9.47658L9.0222 28Z" fill="#6B7280"/>
<path d="M26.375 14.7887L25.6857 8.23825C25.6222 7.62345 25.3327 7.05412 24.8734 6.64059C24.414 6.22706 23.8175 5.99879 23.1994 6H20.5947L20.499 4.46875C20.4911 4.3418 20.435 4.22266 20.3423 4.13557C20.2496 4.04849 20.1272 4.00001 20 4H19.5C19.4994 3.46975 19.2885 2.96139 18.9136 2.58644C18.5386 2.2115 18.0303 2.0006 17.5 2H16V1.5C16 1.10218 15.842 0.720644 15.5607 0.43934C15.2794 0.158035 14.8978 0 14.5 0C14.1022 0 13.7206 0.158035 13.4393 0.43934C13.158 0.720644 13 1.10218 13 1.5V2H11.5C10.9697 2.0006 10.4614 2.2115 10.0864 2.58644C9.7115 2.96139 9.5006 3.46975 9.5 4C8.96975 4.0006 8.46139 4.2115 8.08644 4.58644C7.7115 4.96139 7.5006 5.46975 7.5 6C7.5 6.06566 7.51293 6.13068 7.53805 6.19135C7.56318 6.25201 7.60001 6.30713 7.64644 6.35356L8.97994 7.68706L8.19275 15.9526L9.18825 16.0474L9.31481 14.7185C10.0898 14.6226 10.5562 14.3176 10.974 14.0427C11.3977 13.7639 11.7672 13.5222 12.5 13.502V22.5C12.5 23.0304 12.7107 23.5391 13.0858 23.9142C13.4609 24.2893 13.9696 24.5 14.5 24.5C15.0304 24.5 15.5391 24.2893 15.9142 23.9142C16.2893 23.5391 16.5 23.0304 16.5 22.5V14.7478C17.5331 14.7254 18.0858 14.3639 18.5739 14.043C18.7703 13.9051 18.9788 13.7852 19.1968 13.6847L18.803 12.7654C18.5303 12.8883 18.2696 13.0364 18.0242 13.2075C17.6006 13.486 17.2314 13.7276 16.4998 13.748V7C17.03 6.9994 17.5384 6.7885 17.9133 6.41356C18.2882 6.03861 18.4992 5.53025 18.4998 5H19.53L20.8679 26.4062C20.8807 26.6107 20.8515 26.8156 20.7821 27.0084C20.7127 27.2011 20.6045 27.3776 20.4643 27.5269C20.324 27.6762 20.1547 27.7952 19.9667 27.8766C19.7787 27.958 19.576 28 19.3711 28H11V29H19.3711C19.7126 29 20.0504 28.93 20.3637 28.7945C20.6771 28.6589 20.9594 28.4606 21.1931 28.2117C21.4269 27.9629 21.6072 27.6688 21.723 27.3476C21.8388 27.0264 21.8875 26.6848 21.8662 26.3441L20.8906 10.7338L21.3228 10.5485C21.4236 10.5053 21.5327 10.4847 21.6424 10.4882C21.7521 10.4918 21.8597 10.5194 21.9576 10.569C22.0554 10.6187 22.1412 10.6892 22.2088 10.7756C22.2765 10.862 22.3243 10.9623 22.349 11.0692L23.325 15.2992C23.414 15.6833 23.6462 16.019 23.9741 16.2379C24.302 16.4568 24.7011 16.5425 25.0899 16.4774C25.4788 16.4123 25.8282 16.2013 26.067 15.8876C26.3058 15.5738 26.4159 15.1808 26.375 14.7887ZM14 1.5C14 1.36739 14.0527 1.24021 14.1464 1.14645C14.2402 1.05268 14.3674 1 14.5 1C14.6326 1 14.7598 1.05268 14.8536 1.14645C14.9473 1.24021 15 1.36739 15 1.5V2H14V1.5ZM11.5 3H17.5C17.7651 3.00031 18.0193 3.10577 18.2068 3.29324C18.3942 3.48071 18.4997 3.73488 18.5 4H10.5C10.5003 3.73488 10.6058 3.48071 10.7932 3.29324C10.9807 3.10577 11.2349 3.00031 11.5 3ZM10.4244 13.2072C10.1126 13.4124 9.83069 13.5969 9.41288 13.6885L9.99775 7.54737C10.0047 7.47405 9.99543 7.40009 9.9705 7.33078C9.94558 7.26147 9.90564 7.19852 9.85356 7.14644L8.51794 5.81081C8.56221 5.58275 8.68438 5.37716 8.86353 5.22925C9.04268 5.08134 9.26768 5.00029 9.5 5H10.5C10.5006 5.53025 10.7115 6.03861 11.0864 6.41356C11.4614 6.7885 11.9697 6.9994 12.5 7V12.5021C11.4657 12.5243 10.9125 12.886 10.4244 13.2072ZM14.5 23.5C14.2349 23.4997 13.9807 23.3942 13.7932 23.2068C13.6058 23.0193 13.5003 22.7651 13.5 22.5V13.6452C13.7564 13.7487 13.9996 13.8821 14.2246 14.0427C14.5691 14.2694 14.9453 14.5165 15.5 14.6503V22.5C15.4997 22.7651 15.3942 23.0193 15.2068 23.2068C15.0193 23.3942 14.7651 23.4997 14.5 23.5ZM16.5 6H16C15.8674 6 15.7402 6.05268 15.6464 6.14645C15.5527 6.24021 15.5 6.36739 15.5 6.5V13.6053C15.2432 13.5018 14.9996 13.3682 14.7743 13.2073C14.4299 12.9808 14.0541 12.7339 13.5 12.6V6.5C13.5 6.36739 13.4473 6.24021 13.3536 6.14645C13.2598 6.05268 13.1326 6 13 6H12.5C12.2349 5.99969 11.9807 5.89423 11.7932 5.70676C11.6058 5.51929 11.5003 5.26512 11.5 5H17.5C17.4997 5.26512 17.3942 5.51929 17.2068 5.70676C17.0193 5.89423 16.7651 5.99969 16.5 6ZM23.3234 10.8444C23.2658 10.5949 23.1542 10.361 22.9963 10.1594C22.8385 9.95771 22.6384 9.79314 22.41 9.67727C22.1817 9.5614 21.9307 9.49706 21.6747 9.48879C21.4188 9.48051 21.1642 9.5285 20.9288 9.62938L20.8244 9.67419L20.6572 7H23.1994C23.5703 6.99926 23.9282 7.13622 24.2038 7.38434C24.4794 7.63245 24.6531 7.97405 24.6912 8.34294L25.2341 13.5H23.9362L23.3234 10.8444ZM25.2428 15.3183C25.1756 15.3929 25.0892 15.4477 24.993 15.4767C24.8968 15.5057 24.7945 15.5077 24.6972 15.4826C24.5999 15.4575 24.5114 15.4061 24.4413 15.3342C24.3712 15.2622 24.3221 15.1724 24.2995 15.0745L24.1669 14.5H25.3393L25.3808 14.8934C25.3892 14.9699 25.3813 15.0474 25.3575 15.1207C25.3337 15.1939 25.2946 15.2613 25.2428 15.3183Z" fill="#6B7280"/>
</svg>
