<svg width="30" height="30" viewBox="0 0 30 30" fill="none" xmlns="http://www.w3.org/2000/svg">
<path d="M11 10.25H10C10 10.3382 9.81019 10.5 9.5 10.5C9.18981 10.5 9 10.3382 9 10.25H8C8 10.951 8.65887 11.5 9.5 11.5C10.3411 11.5 11 10.951 11 10.25ZM18.834 11.4718L19.2381 11.7662C19.4506 11.9218 19.7072 12.0056 19.9705 12.0054C20.0366 12.0054 20.1026 12.0002 20.1679 11.99C20.3302 11.9651 20.4859 11.9083 20.6261 11.8228C20.7662 11.7374 20.8881 11.6249 20.9845 11.4921L22.4568 9.47159C22.6516 9.20352 22.7322 8.8691 22.6808 8.54169C22.6294 8.21428 22.4503 7.92063 22.1826 7.72516L21.7786 7.43078C21.5104 7.23612 21.1761 7.15567 20.8487 7.20705C20.5214 7.25843 20.2277 7.43745 20.0321 7.70491L18.5599 9.72541C18.365 9.99347 18.2844 10.3279 18.3358 10.6553C18.3872 10.9827 18.5664 11.2763 18.834 11.4718ZM19.3681 10.3143L20.8404 8.29378C20.8598 8.26736 20.8842 8.24503 20.9122 8.22806C20.9402 8.2111 20.9714 8.19983 21.0037 8.19491C21.017 8.19283 21.0304 8.19179 21.0438 8.19178C21.0962 8.19148 21.1474 8.20802 21.1897 8.23897L21.5938 8.53341C21.6466 8.57299 21.6819 8.63165 21.6922 8.69689C21.7024 8.76213 21.6868 8.82878 21.6486 8.88266L20.1763 10.9032C20.1368 10.9563 20.0782 10.9918 20.0128 11.002C19.9475 11.0123 19.8808 10.9964 19.827 10.958L19.4229 10.6635C19.37 10.6239 19.3347 10.5652 19.3245 10.5C19.3143 10.4347 19.3299 10.3681 19.3681 10.3142V10.3143ZM22.5883 13.0869C22.7439 13.594 23.0945 14.0186 23.563 14.2672C24.0316 14.5158 24.5797 14.5681 25.0868 14.4125C25.2003 14.3778 25.3105 14.3331 25.4161 14.2789C25.6118 14.4044 25.8339 14.4827 26.065 14.5077C26.2961 14.5327 26.5298 14.5036 26.7477 14.4228C26.9656 14.342 27.1618 14.2117 27.3208 14.0421C27.4797 13.8725 27.5971 13.6683 27.6636 13.4456C27.7302 13.2229 27.7441 12.9878 27.7042 12.7588C27.6643 12.5298 27.5718 12.3132 27.4339 12.1261C27.296 11.939 27.1165 11.7865 26.9096 11.6806C26.7027 11.5747 26.474 11.5184 26.2416 11.516C25.999 11.0868 25.6064 10.7624 25.1393 10.605C24.6721 10.4476 24.1633 10.4682 23.7104 10.6629C23.2576 10.8577 22.8926 11.2128 22.6855 11.6601C22.4784 12.1075 22.4438 12.6156 22.5883 13.0869ZM23.6171 12.0317C23.7098 11.857 23.8522 11.7137 24.0263 11.62C24.2005 11.5262 24.3985 11.4862 24.5954 11.505C24.7923 11.5238 24.9791 11.6005 25.1324 11.7255C25.2857 11.8505 25.3984 12.0181 25.4564 12.2072C25.4757 12.27 25.5071 12.3284 25.5489 12.379C25.5907 12.4296 25.6421 12.4716 25.7001 12.5023C25.7581 12.5331 25.8216 12.5522 25.887 12.5584C25.9524 12.5646 26.0183 12.5579 26.0811 12.5387C26.1677 12.5122 26.2597 12.5097 26.3476 12.5314C26.4354 12.5531 26.5157 12.5983 26.5799 12.6621C26.6441 12.7259 26.6898 12.8059 26.7121 12.8936C26.7344 12.9813 26.7324 13.0734 26.7065 13.1601C26.6806 13.2467 26.6316 13.3248 26.5648 13.3858C26.498 13.4469 26.4159 13.4886 26.3272 13.5067C26.2386 13.5248 26.1467 13.5184 26.0613 13.4883C25.976 13.4583 25.9004 13.4056 25.8426 13.336C25.7579 13.234 25.6362 13.1698 25.5042 13.1576C25.3722 13.1453 25.2408 13.186 25.1388 13.2707C24.9605 13.4184 24.7364 13.4997 24.5049 13.5007C24.2734 13.5017 24.0486 13.4223 23.8691 13.2761C23.6895 13.1299 23.5663 12.926 23.5203 12.699C23.4743 12.4721 23.5085 12.2363 23.6171 12.0317Z" fill="#6B7280"/>
<path d="M29 27.2929V26.7767C29.0009 26.4647 28.9398 26.1556 28.8204 25.8673C28.701 25.5791 28.5256 25.3173 28.3044 25.0973L27.3536 24.1464C27.3071 24.1 27.252 24.0632 27.1913 24.038C27.1307 24.0129 27.0657 24 27 24C26.9343 24 26.8693 24.0129 26.8087 24.038C26.748 24.0632 26.6929 24.1 26.6464 24.1464L25.6956 25.0973C25.4744 25.3173 25.299 25.5791 25.1796 25.8673C25.0602 26.1556 24.9991 26.4647 25 26.7767V27H24.5V26.7766C24.5009 26.4646 24.4398 26.1555 24.3204 25.8673C24.201 25.579 24.0256 25.3173 23.8044 25.0972L23.0339 24.3269L25.6702 23.3729L25.3299 22.4326L19.2169 24.6447C19.124 24.6783 19.0288 24.7051 18.9319 24.7249L18.3536 24.1465C18.3071 24.1001 18.252 24.0632 18.1913 24.0381C18.1307 24.013 18.0657 24 18 24C17.9343 24 17.8693 24.013 17.8087 24.0381C17.748 24.0632 17.6929 24.1001 17.6464 24.1465L17.3898 24.4031C17.0518 24.1673 16.7953 23.8324 16.6558 23.4446L15.9752 21.5639L28.1994 17.1403L28.88 19.0209C28.9694 19.2679 29.0092 19.5301 28.9973 19.7925C28.9854 20.0548 28.9218 20.3123 28.8104 20.5501C28.699 20.788 28.5418 21.0015 28.3478 21.1786C28.1538 21.3557 27.9269 21.4928 27.6799 21.5822L26.3299 22.0707L26.6701 23.011L28.0201 22.5225C28.3906 22.3884 28.731 22.1827 29.022 21.9171C29.3129 21.6515 29.5487 21.3311 29.7159 20.9744C29.883 20.6176 29.9783 20.2315 29.9962 19.8379C30.0141 19.4443 29.9543 19.0511 29.8202 18.6806L28.9696 16.3299C28.9472 16.2681 28.9129 16.2114 28.8687 16.1629C28.8244 16.1144 28.771 16.0751 28.7115 16.0473C28.6521 16.0194 28.5877 16.0035 28.5221 16.0005C28.4565 15.9976 28.391 16.0075 28.3293 16.0299L23.9594 17.6112C24.0339 17.2621 24.0136 16.8995 23.9007 16.5608C23.7878 16.2222 23.5864 15.9199 23.3173 15.6853C23.0482 15.4508 22.7213 15.2925 22.3704 15.2269C22.0195 15.1613 21.6575 15.1907 21.3218 15.3122C20.9861 15.4337 20.6891 15.6427 20.4614 15.9177C20.2338 16.1927 20.0839 16.5235 20.0272 16.876C19.9705 17.2284 20.0092 17.5896 20.1391 17.9221C20.2691 18.2545 20.4856 18.5462 20.7663 18.7668L18.9855 19.4111C18.9473 19.1197 18.8367 18.8425 18.6636 18.605C18.4905 18.3674 18.2606 18.1771 17.9949 18.0514L17.3275 17.7047L17.9772 17.5053C18.2938 17.4076 18.5588 17.1884 18.7141 16.8957C18.8694 16.6031 18.9024 16.2608 18.8058 15.9438L18.366 14.5097C18.2684 14.193 18.0492 13.9279 17.7564 13.7726C17.4637 13.6173 17.1213 13.5845 16.8044 13.6812L15.3703 14.1211C15.0537 14.2188 14.7887 14.438 14.6334 14.7307C14.4781 15.0234 14.4452 15.3657 14.5418 15.6827L14.7514 16.3662L13.3999 15.664L12.1398 12.7238L12.6979 12.4411C13.0904 12.2438 13.4202 11.941 13.6502 11.5668C13.8802 11.1925 14.0013 10.7615 14 10.3223V9.5H14.375C14.6733 9.49967 14.9592 9.38104 15.1701 9.17013C15.381 8.95922 15.4997 8.67327 15.5 8.375V7.125C15.4999 6.94006 15.4543 6.75798 15.3671 6.59489C15.2799 6.4318 15.1538 6.29273 15 6.19V4.25C14.9987 3.12322 14.5506 2.04296 13.7538 1.2462C12.957 0.449449 11.8768 0.00127375 10.75 0H6.25C5.78603 0.000512831 5.34121 0.185052 5.01313 0.51313C4.68505 0.841207 4.50051 1.28603 4.5 1.75V3.25C4.49987 3.48295 4.54638 3.71356 4.63679 3.92824C4.72721 4.14293 4.85969 4.33734 5.02644 4.5H5V6H4.625C4.32673 6.00033 4.04078 6.11896 3.82987 6.32987C3.61896 6.54078 3.50033 6.82673 3.5 7.125V8.375C3.50033 8.67327 3.61896 8.95922 3.82987 9.17013C4.04078 9.38104 4.32673 9.49967 4.625 9.5H5V10.3412C4.99851 10.7826 5.12072 11.2155 5.35277 11.591C5.58482 11.9665 5.91742 12.2694 6.31287 12.4654L6.85475 12.7364L5.60006 15.6639L3.81525 16.5912L4.27631 17.4786L5.91838 16.6255L7.37869 18.0858C7.9413 18.6484 8.70435 18.9644 9.5 18.9644C10.2956 18.9644 11.0587 18.6484 11.6213 18.0858L13.0816 16.6254L17.5433 18.9437C17.5502 18.9473 17.5572 18.9507 17.5643 18.9539C17.6942 19.0142 17.8043 19.1103 17.8814 19.231C17.9586 19.3516 17.9997 19.4918 18 19.635V19.7678L15.1647 20.7938C15.103 20.8161 15.0463 20.8504 14.9978 20.8947C14.9493 20.9389 14.91 20.9923 14.8821 21.0518C14.8543 21.1112 14.8384 21.1756 14.8354 21.2412C14.8324 21.3068 14.8424 21.3723 14.8647 21.4341L15.0401 21.9186L11.9909 23.131C11.2063 22.9763 10.3934 23.0617 9.65806 23.376C9.64798 23.3803 9.63804 23.385 9.62825 23.3899L7.42319 24.5059C7.3956 24.5102 7.36842 24.5168 7.34194 24.5257L5 25.3062V22H4V26C3.99999 26.0792 4.01882 26.1573 4.05492 26.2279C4.09102 26.2984 4.14336 26.3593 4.20763 26.4057C4.27191 26.452 4.34627 26.4824 4.4246 26.4943C4.50292 26.5063 4.58296 26.4994 4.65812 26.4744L7.23644 25.6149L8.25331 27.7797L5.39769 29H1.75C1.55116 28.9998 1.36053 28.9207 1.21993 28.7801C1.07932 28.6395 1.00023 28.4488 1 28.25V19.635C1.00027 19.4918 1.04141 19.3516 1.11859 19.231C1.19576 19.1104 1.30578 19.0143 1.43569 18.954C1.44275 18.9507 1.44975 18.9473 1.45669 18.9437L3.2105 18.0324L2.74944 17.1451L1.00513 18.0514C0.704968 18.1933 0.451205 18.4174 0.273294 18.6977C0.0953821 18.978 0.000617553 19.303 0 19.635V28.25C0.000512831 28.714 0.185052 29.1588 0.51313 29.4869C0.841207 29.8149 1.28603 29.9995 1.75 30H14V29H7.9425L9.12187 28.4961L9.12212 28.4959L14.6419 26.1439C14.7639 26.092 14.8602 25.9937 14.9097 25.8706C14.9592 25.7476 14.9578 25.61 14.9059 25.488C14.8799 25.4269 14.8525 25.3668 14.8238 25.3078L16.2318 24.6861C16.3643 24.845 16.5129 24.9897 16.6754 25.1178C16.2409 25.5605 15.9983 26.1564 16 26.7766V27.2929L15.1464 28.1464C15.1 28.1929 15.0632 28.248 15.038 28.3087C15.0129 28.3693 15 28.4343 15 28.5V29.5C15 29.6326 15.0527 29.7598 15.1464 29.8536C15.2402 29.9473 15.3674 30 15.5 30H29.5C29.6326 30 29.7598 29.9473 29.8536 29.8536C29.9473 29.7598 30 29.6326 30 29.5V28.5C30 28.4343 29.9871 28.3693 29.962 28.3087C29.9368 28.248 29.9 28.1929 29.8536 28.1464L29 27.2929ZM21.7091 16.2391C21.8981 16.1811 22.1002 16.1805 22.2896 16.2373C22.4791 16.2941 22.6474 16.4058 22.7733 16.5583C22.8993 16.7108 22.9772 16.8973 22.9972 17.094C23.0172 17.2908 22.9783 17.4891 22.8857 17.6638C22.793 17.8385 22.6505 17.9818 22.4764 18.0756C22.3023 18.1693 22.1042 18.2094 21.9074 18.1906C21.7105 18.1718 21.5236 18.0951 21.3703 17.9701C21.217 17.8451 21.1043 17.6775 21.0462 17.4884C20.9693 17.2348 20.9959 16.9611 21.12 16.727C21.2442 16.493 21.456 16.3175 21.7091 16.2391ZM15.5168 15.1993C15.532 15.1703 15.5528 15.1445 15.578 15.1236C15.6032 15.1026 15.6323 15.0868 15.6636 15.0771L17.0976 14.6372C17.1206 14.6301 17.1444 14.6266 17.1684 14.6266C17.2222 14.6267 17.2745 14.6438 17.3179 14.6755C17.3613 14.7072 17.3935 14.7518 17.4099 14.8029L17.8498 16.237C17.8686 16.3004 17.8618 16.3686 17.8308 16.4271C17.7998 16.4855 17.7471 16.5294 17.6841 16.5493L16.25 16.9891C16.1866 17.0077 16.1185 17.0007 16.0602 16.9698C16.0018 16.9388 15.9579 16.8863 15.9377 16.8234L15.4979 15.3894C15.4884 15.358 15.4851 15.3251 15.4884 15.2925C15.4916 15.2598 15.5013 15.2282 15.5168 15.1993ZM14.5 8.375C14.5 8.40814 14.4868 8.43992 14.4634 8.46335C14.4399 8.48679 14.4081 8.49997 14.375 8.5H14V7.5H14.5V8.375ZM14 4.25V6.5H11.25C10.3883 6.49902 9.56226 6.1563 8.95298 5.54702C8.3437 4.93774 8.00098 4.11165 8 3.25V1H10.75C11.6117 1.00098 12.4377 1.3437 13.047 1.95298C13.6563 2.56226 13.999 3.38835 14 4.25ZM5.5 1.75C5.50023 1.55116 5.57932 1.36053 5.71993 1.21993C5.86053 1.07932 6.05116 1.00023 6.25 1H7V4H6.25C6.05116 3.99977 5.86053 3.92068 5.71993 3.78007C5.57932 3.63947 5.50023 3.44884 5.5 3.25V1.75ZM4.625 8.5C4.59186 8.49997 4.56008 8.48679 4.53665 8.46335C4.51321 8.43992 4.50003 8.40814 4.5 8.375V7.125C4.50003 7.09186 4.51321 7.06008 4.53665 7.03665C4.56008 7.01321 4.59186 7.00003 4.625 7H5V8.5H4.625ZM6 10.3412V4.98219C6.0828 4.99407 6.16635 5.00002 6.25 5H7.37719C7.71446 5.74463 8.25904 6.37637 8.94583 6.81971C9.63262 7.26305 10.4326 7.49922 11.25 7.5H13V10.3223C13.0007 10.5766 12.9306 10.8261 12.7974 11.0428C12.6643 11.2594 12.4734 11.4347 12.2461 11.5489L9.83525 12.7697C9.73072 12.8224 9.61537 12.8499 9.49833 12.8502C9.3813 12.8506 9.2658 12.8236 9.161 12.7715L6.76006 11.5711C6.53112 11.4575 6.33857 11.2821 6.20423 11.0648C6.06989 10.8474 5.99914 10.5967 6 10.3412ZM10.9142 17.3787C10.5391 17.7537 10.0304 17.9644 9.5 17.9644C8.96958 17.9644 8.46088 17.7537 8.08581 17.3787L6.59294 15.8858L7.75069 13.1844L8.71381 13.6659C8.95832 13.7875 9.2278 13.8505 9.50088 13.8498C9.77395 13.8491 10.0431 13.7848 10.287 13.6619L11.2459 13.1763L12.4071 15.8858L10.9142 17.3787ZM26 26.7766C25.9995 26.596 26.0348 26.4171 26.104 26.2502C26.1731 26.0833 26.2746 25.9318 26.4027 25.8044L27 25.2071L27.5973 25.8044C27.7254 25.9318 27.8269 26.0833 27.896 26.2502C27.9652 26.4171 28.0005 26.596 28 26.7766V27H26V26.7766ZM23.5 26.7766V27H21.5V26.7766C21.4995 26.596 21.5348 26.4171 21.604 26.2502C21.6731 26.0833 21.7746 25.9318 21.9027 25.8044L22.5 25.2071L23.0973 25.8044C23.2254 25.9318 23.3269 26.0833 23.396 26.2502C23.4652 26.4171 23.5005 26.596 23.5 26.7766ZM21.1956 25.0972C20.9744 25.3173 20.799 25.579 20.6796 25.8673C20.5602 26.1555 20.4991 26.4646 20.5 26.7766V27H20V26.7766C20.0011 26.3436 19.883 25.9187 19.6588 25.5483L21.3604 24.9324L21.1956 25.0972ZM18 25.2071L18.5973 25.8044C18.7254 25.9318 18.8269 26.0833 18.896 26.2502C18.9652 26.4171 19.0005 26.596 19 26.7766V27H17V26.7766C16.9995 26.596 17.0348 26.4171 17.104 26.2502C17.1731 26.0833 17.2746 25.9318 17.4027 25.8044L18 25.2071ZM9.18025 27.3841L8.20681 25.2301L10.0646 24.2899C10.6961 24.024 11.3998 23.9833 12.0577 24.1749L12.0597 24.1798L12.066 24.1773C12.7614 24.3799 13.3601 24.827 13.7516 25.4363L9.18025 27.3841ZM14.2692 24.4595C14.0047 24.15 13.6943 23.8828 13.3488 23.6672L15.3806 22.8595L15.7267 23.8161L14.2692 24.4595ZM29 29H16V28.7071L16.7071 28H28.2929L29 28.7071V29Z" fill="#6B7280"/>
<path d="M7 7H8V8H7V7ZM24.8973 7.81519L25.8534 7.522L26.1466 8.47806L25.1905 8.77125L24.8973 7.81519ZM15.8534 11.1594L16.8094 10.8663L17.1026 11.8223L16.1466 12.1155L15.8534 11.1594ZM28.3534 14.3152L29.3094 14.022L29.6026 14.9781L28.6466 15.2712L28.3534 14.3152Z" fill="#6B7280"/>
</svg>
