<svg width="32" height="32" viewBox="0 0 32 32" fill="none" xmlns="http://www.w3.org/2000/svg">
<path d="M16.5353 23.1254H15.1945C14.7194 23.1254 14.3329 22.7389 14.3329 22.2638C14.3329 21.7404 13.9941 21.4135 13.677 21.2821C13.36 21.1508 12.8893 21.1423 12.5192 21.5125C12.3565 21.6752 12.1401 21.7648 11.9099 21.7648C11.6797 21.7648 11.4633 21.6751 11.3006 21.5124L10.3525 20.5644C10.0166 20.2284 10.0166 19.6817 10.3525 19.3457C10.722 18.9763 10.7132 18.5056 10.5818 18.1883C10.4503 17.8711 10.1238 17.532 9.60125 17.532C9.12611 17.532 8.73962 17.1455 8.73962 16.6704V15.3297C8.73962 14.8545 9.12617 14.468 9.60125 14.468C10.1238 14.468 10.4503 14.129 10.5818 13.8117C10.7132 13.4945 10.722 13.0238 10.3525 12.6544C10.1898 12.4916 10.1002 12.2752 10.1002 12.045C10.1002 11.8148 10.1898 11.5984 10.3526 11.4357L11.3006 10.4876C11.4633 10.325 11.6797 10.2353 11.9099 10.2353C12.1401 10.2353 12.3565 10.3249 12.5192 10.4876C12.8886 10.8572 13.3593 10.8482 13.6766 10.7169C13.9938 10.5855 14.3329 10.2589 14.3329 9.73644C14.3329 9.26125 14.7194 8.87476 15.1945 8.87476H16.5353C17.0104 8.87476 17.3969 9.26131 17.3969 9.73644C17.3969 10.2589 17.736 10.5854 18.0532 10.7169C18.3705 10.8483 18.8413 10.8571 19.2106 10.4876C19.5467 10.1518 20.0932 10.1517 20.4292 10.4876L21.3773 11.4357C21.54 11.5984 21.6297 11.8148 21.6297 12.045C21.6297 12.2752 21.5401 12.4916 21.3773 12.6544C21.0078 13.0238 21.0167 13.4945 21.148 13.8117C21.2795 14.129 21.606 14.468 22.1285 14.468C22.6037 14.468 22.9902 14.8546 22.9902 15.3297V16.6704C22.9902 17.1455 22.6036 17.532 22.1285 17.532C21.606 17.532 21.2795 17.8711 21.148 18.1883C21.0166 18.5056 21.0078 18.9763 21.3773 19.3457C21.7133 19.6817 21.7133 20.2284 21.3773 20.5644L20.4292 21.5125C20.0931 21.8485 19.5466 21.8483 19.2106 21.5125C18.8411 21.1429 18.3706 21.1519 18.0532 21.2832C17.736 21.4147 17.3969 21.7412 17.3969 22.2637C17.3969 22.7389 17.0104 23.1254 16.5353 23.1254ZM13.2583 20.3539C13.5055 20.3539 13.7563 20.403 13.9994 20.5038C14.7249 20.8042 15.1754 21.4786 15.1754 22.2637C15.1754 22.2742 15.184 22.2828 15.1945 22.2828H16.5353C16.5458 22.2828 16.5543 22.2742 16.5543 22.2637C16.5543 21.4794 17.0051 20.8054 17.7308 20.5048C18.4565 20.204 19.2518 20.362 19.8065 20.9166C19.8138 20.9241 19.826 20.9242 19.8334 20.9166L20.7815 19.9685C20.789 19.9611 20.789 19.9489 20.7815 19.9415C20.2269 19.3868 20.0691 18.5915 20.3697 17.8658C20.6703 17.1402 21.3442 16.6894 22.1286 16.6894C22.1391 16.6894 22.1477 16.6808 22.1477 16.6703V15.3296C22.1477 15.3191 22.1391 15.3105 22.1286 15.3105C21.3442 15.3105 20.6703 14.8597 20.3697 14.1341C20.0691 13.4084 20.2269 12.6131 20.7815 12.0585C20.7832 12.0568 20.7872 12.0529 20.7872 12.0449C20.7872 12.037 20.7833 12.0332 20.7816 12.0314L19.8334 11.0833C19.826 11.0757 19.8138 11.0759 19.8065 11.0833C19.2517 11.638 18.4563 11.7958 17.7308 11.4951C17.0051 11.1946 16.5543 10.5207 16.5543 9.73626C16.5543 9.72567 16.5457 9.71712 16.5353 9.71712H15.1945C15.184 9.71712 15.1754 9.72573 15.1754 9.73626C15.1754 10.5206 14.7247 11.1945 13.999 11.4951C13.2733 11.7958 12.478 11.6378 11.9234 11.0833C11.9218 11.0816 11.9178 11.0777 11.9098 11.0777C11.902 11.0777 11.8981 11.0815 11.8964 11.0833L10.9482 12.0314C10.9465 12.0331 10.9426 12.037 10.9426 12.0449C10.9426 12.0529 10.9465 12.0568 10.9482 12.0585C11.5028 12.6131 11.6607 13.4085 11.3601 14.1341C11.0595 14.8597 10.3855 15.3105 9.60113 15.3105C9.5906 15.3105 9.58205 15.3191 9.58205 15.3296V16.6703C9.58205 16.6809 9.59066 16.6894 9.60113 16.6894C10.3855 16.6894 11.0595 17.1402 11.3601 17.8658C11.6607 18.5916 11.5029 19.3869 10.9482 19.9415C10.9408 19.9489 10.9408 19.9611 10.9482 19.9685L11.8964 20.9166C11.898 20.9183 11.902 20.9223 11.9098 20.9223C11.9178 20.9223 11.9217 20.9183 11.9234 20.9166C12.2925 20.5476 12.768 20.3539 13.2583 20.3539ZM15.8649 19.6975C13.8262 19.6975 12.1675 18.0388 12.1675 16C12.1675 13.9613 13.8262 12.3026 15.8649 12.3026C17.9037 12.3026 19.5624 13.9612 19.5624 16C19.5624 18.0388 17.9037 19.6975 15.8649 19.6975ZM15.8649 13.1451C14.2908 13.1451 13.01 14.4258 13.01 16C13.01 17.5743 14.2907 18.8549 15.8649 18.8549C17.4392 18.8549 18.7199 17.5742 18.7199 16C18.7199 14.4258 17.4391 13.1451 15.8649 13.1451Z" fill="#9333EA"/>
<path d="M27.6451 30C27.5947 30 27.5437 29.991 27.4947 29.9722C27.3316 29.9098 27.224 29.7533 27.224 29.5787V28.285H15.865C9.09096 28.285 3.5799 22.774 3.5799 16C3.5799 13.0953 4.61317 10.2764 6.48941 8.06241C6.56945 7.96798 6.68693 7.91346 6.81078 7.91346H10.51C10.6939 7.91346 10.8565 8.03268 10.9118 8.20811C10.9671 8.38348 10.9022 8.57444 10.7516 8.67987C8.3624 10.3522 6.93602 13.0887 6.93602 16C6.93602 20.9235 10.9416 24.9291 15.8651 24.9291H27.224V23.6354C27.224 23.4608 27.3317 23.3043 27.4948 23.2419C27.658 23.1795 27.8425 23.2243 27.959 23.3542L30.6225 26.3259C30.7659 26.4859 30.7659 26.7282 30.6225 26.8882L27.959 29.8599C27.8775 29.9508 27.7626 30 27.6451 30ZM7.00812 8.75606C5.33933 10.7947 4.42245 13.3593 4.42245 16C4.42245 22.3094 9.55557 27.4425 15.865 27.4425H27.6452C27.8779 27.4425 28.0665 27.6311 28.0665 27.8638V28.4775L29.7429 26.607L28.0665 24.7366V25.3503C28.0665 25.583 27.8779 25.7716 27.6452 25.7716H15.865C10.477 25.7716 6.09341 21.3881 6.09341 16C6.09341 13.226 7.27647 10.5973 9.30798 8.75606H7.00812ZM4.08483 30C3.96736 30 3.85253 29.9508 3.77098 29.8599L1.10756 26.8882C0.964146 26.7282 0.964146 26.4859 1.10756 26.3259L3.77098 23.3542C3.88749 23.2243 4.07201 23.1795 4.23523 23.2419C4.39832 23.3043 4.50599 23.4608 4.50599 23.6354V24.9291H6.06019C6.17532 24.9291 6.28545 24.9762 6.36495 25.0595C7.28929 26.0283 8.3515 26.8478 9.52205 27.4951C9.69014 27.5881 9.77409 27.783 9.72606 27.969C9.6781 28.1551 9.51031 28.285 9.31821 28.285H4.50599V29.5787C4.50599 29.7533 4.39832 29.9098 4.23523 29.9722C4.18618 29.991 4.13526 30 4.08483 30ZM1.98694 26.607L3.66338 28.4775V27.8638C3.66338 27.6311 3.85199 27.4425 4.08465 27.4425H7.84965C7.14467 26.9482 6.48622 26.3893 5.88145 25.7716H4.08471C3.85205 25.7716 3.66344 25.583 3.66344 25.3503V24.7366L1.98694 26.607ZM24.9192 24.0865H21.22C21.0361 24.0865 20.8735 23.9673 20.8182 23.7919C20.7629 23.6165 20.8278 23.4255 20.9784 23.3201C23.3675 21.6478 24.7939 18.9113 24.7939 15.9999C24.7939 11.0764 20.7884 7.07097 15.8649 7.07097H4.50599V8.36458C4.50599 8.53917 4.39832 8.69564 4.23523 8.75805C4.07201 8.82046 3.88749 8.77568 3.77098 8.64575L1.10756 5.67414C0.964146 5.51411 0.964146 5.27182 1.10756 5.1118L3.77098 2.14012C3.88749 2.01019 4.07201 1.96541 4.23523 2.02782C4.39832 2.09023 4.50599 2.24671 4.50599 2.42129V3.71497H15.865C22.639 3.71497 28.15 9.22603 28.15 16C28.15 18.9047 27.1168 21.7236 25.2406 23.9376C25.1606 24.032 25.0431 24.0865 24.9192 24.0865ZM22.422 23.244H24.7219C26.3907 21.2053 27.3075 18.6407 27.3075 16C27.3075 9.69057 22.1744 4.55752 15.865 4.55752H4.08471C3.85205 4.55752 3.66344 4.36891 3.66344 4.13624V3.52251L1.987 5.39297L3.66344 7.26343V6.64975C3.66344 6.41709 3.85205 6.22848 4.08471 6.22848H15.865C21.253 6.22848 25.6365 10.612 25.6365 16C25.6365 18.774 24.4535 21.4027 22.422 23.244ZM27.6451 8.78592C27.5947 8.78592 27.5437 8.77689 27.4947 8.75811C27.3316 8.6957 27.224 8.53923 27.224 8.36464V7.07103H25.6698C25.5546 7.07103 25.4445 7.0239 25.365 6.94049C24.4411 5.97198 23.379 5.15254 22.208 4.50486C22.0399 4.41188 21.9559 4.21701 22.0039 4.03099C22.0519 3.84496 22.2197 3.71497 22.4118 3.71497H27.224V2.42129C27.224 2.24671 27.3316 2.09023 27.4947 2.02782C27.6579 1.96541 27.8424 2.01019 27.959 2.14012L30.6224 5.1118C30.7659 5.27182 30.7659 5.51411 30.6224 5.67414L27.959 8.64581C27.8775 8.73675 27.7626 8.78592 27.6451 8.78592ZM25.8486 6.22848H27.6452C27.8779 6.22848 28.0665 6.41709 28.0665 6.64975V7.26343L29.7429 5.39297L28.0665 3.52251V4.13624C28.0665 4.36891 27.8779 4.55752 27.6452 4.55752H23.8803C24.5856 5.05204 25.244 5.61077 25.8486 6.22848Z" fill="#9333EA"/>
</svg>
