<svg width="32" height="26" viewBox="0 0 32 26" fill="none" xmlns="http://www.w3.org/2000/svg">
<path d="M28.4013 7.72615C28.6471 7.13267 28.3653 6.45228 27.7718 6.20646C27.1783 5.96063 26.4979 6.24246 26.2521 6.83593C26.0063 7.42941 26.2881 8.1098 26.8816 8.35563C27.4751 8.60146 28.1555 8.31963 28.4013 7.72615Z" stroke="#6B7280" stroke-width="1.17188" stroke-miterlimit="10" stroke-linecap="round" stroke-linejoin="round"/>
<path d="M23.1225 13.1282V6.91503M12.6566 1.25647V7.28847M15.4596 7.28847V1.25647M18.2624 6.11934V6.79941C18.2624 6.86363 18.2497 6.92722 18.2252 6.98655C18.2006 7.04589 18.1646 7.0998 18.1191 7.1452C18.0737 7.19061 18.0198 7.22663 17.9605 7.2512C17.9011 7.27577 17.8375 7.28841 17.7733 7.28841H9.85352V1.74553C9.85352 1.61583 9.90504 1.49143 9.99676 1.39971C10.0885 1.308 10.2129 1.25647 10.3426 1.25647H17.7733C17.903 1.25647 18.0274 1.308 18.1191 1.39971C18.2109 1.49143 18.2624 1.61583 18.2624 1.74553V3.93184M9.8537 12.0969V2.58941M18.0687 20.3119V17.4219M28.1762 17.4225V20.9488C28.1762 21.7007 27.5668 22.31 26.815 22.31H20.0668M31.0421 10.2978H23.1223V4.75484C23.1223 4.62514 23.1739 4.50074 23.2656 4.40903C23.3573 4.31731 23.4817 4.26578 23.6114 4.26578H31.0421C31.1718 4.26578 31.2962 4.31731 31.388 4.40903C31.4797 4.50074 31.5312 4.62514 31.5312 4.75484V9.80878C31.5312 9.93849 31.4797 10.0629 31.388 10.1546C31.2962 10.2463 31.1718 10.2978 31.0421 10.2978Z" stroke="#6B7280" stroke-width="1.17188" stroke-miterlimit="10" stroke-linecap="round" stroke-linejoin="round"/>
<path d="M24.9412 17.0744C26.0993 17.1394 27.2575 17.2687 28.415 17.4606C28.8543 17.5337 29.2531 17.1931 29.2531 16.7481V15.9869C29.2531 15.1037 28.7025 14.3156 27.8743 14.0087C26.8962 13.6462 25.9187 13.3955 24.9412 13.2569M24.9412 13.2569C23.7348 13.0849 22.5101 13.0849 21.3037 13.2569M24.9412 13.2569V22.31M21.3037 13.2569C20.3256 13.3955 19.3475 13.6462 18.37 14.0087C17.5425 14.3156 16.9918 15.1037 16.9918 15.9869V16.7481C16.9918 17.1931 17.3906 17.5337 17.8293 17.4606C18.9875 17.2687 20.1456 17.1394 21.3037 17.0744M21.3037 13.2569V22.31M9.27935 11.5223C5.89579 14.9059 3.80304 19.5802 3.80304 24.7435M9.27935 11.5223L7.45272 9.69561C7.15141 9.39436 6.6611 9.40511 6.3706 9.7168C2.86647 13.4765 0.660973 18.4632 0.469223 23.9615C0.454348 24.388 0.792223 24.7435 1.21904 24.7435H3.80304M9.27935 11.5223L21.2337 23.4767C21.7012 23.9442 21.3701 24.7435 20.709 24.7435H8.83691M3.80304 24.7435H6.64941" stroke="#6B7280" stroke-width="1.17188" stroke-miterlimit="10" stroke-linecap="round" stroke-linejoin="round"/>
<path d="M10.2598 20.9607C10.6921 19.9171 10.1965 18.7206 9.1529 18.2883C8.10925 17.856 6.91278 18.3516 6.48049 19.3952C6.04819 20.4389 6.54379 21.6354 7.58743 22.0676C8.63107 22.4999 9.82755 22.0043 10.2598 20.9607Z" stroke="#6B7280" stroke-width="1.17188" stroke-miterlimit="10" stroke-linecap="round" stroke-linejoin="round"/>
<path d="M13.9015 22.2315C12.7719 22.2315 11.8561 23.1472 11.8561 24.2768C11.8561 24.4375 11.8752 24.5936 11.9102 24.7436H15.8927C15.9277 24.5936 15.9469 24.4375 15.9469 24.2768C15.9469 23.1472 15.0311 22.2315 13.9015 22.2315ZM11.1356 16.0868C11.1356 17.2165 12.0514 18.1322 13.181 18.1322C13.9156 18.1322 14.5596 17.7447 14.9202 17.1632L12.1047 14.3477C11.5232 14.7083 11.1356 15.3522 11.1356 16.0868Z" stroke="#6B7280" stroke-width="1.17188" stroke-miterlimit="10" stroke-linecap="round" stroke-linejoin="round"/>
</svg>
