<svg width="31" height="32" viewBox="0 0 31 32" fill="none" xmlns="http://www.w3.org/2000/svg">
<path d="M10.9955 17.5545C10.9861 17.0533 10.7827 16.5752 10.428 16.221L9 14.793L7.57199 16.221C7.2215 16.5718 7.01892 17.0437 7.006 17.5395C6.50588 17.5517 6.02913 17.7537 5.6725 18.1045L4.245 19.5325L5.673 20.9605C6.02335 21.3101 6.49421 21.5124 6.989 21.526C6.99857 22.0273 7.20196 22.5054 7.5565 22.86L8.9845 24.2875L10.4125 22.8595C10.7621 22.5091 10.9645 22.0383 10.978 21.5435C11.4792 21.5341 11.9572 21.3306 12.3115 20.976L13.7395 19.548L12.312 18.1205C11.9614 17.7707 11.4905 17.5683 10.9955 17.5545ZM8 19.5C8 18.9485 8.4485 18.5 9 18.5C9.5515 18.5 10 18.9485 10 19.5C10 20.0515 9.5515 20.5 9 20.5C8.4485 20.5 8 20.0515 8 19.5ZM8.279 16.928L9 16.207L9.72099 16.928C9.89799 17.1055 10 17.351 10 17.602C10 17.6585 9.9935 17.7145 9.984 17.7695C9.68521 17.5951 9.34592 17.5022 9 17.5C8.65367 17.502 8.31398 17.5952 8.015 17.77C7.98858 17.6187 7.99877 17.4634 8.0447 17.3169C8.09063 17.1704 8.17097 17.037 8.279 16.928ZM5.6585 19.532L6.379 18.8115C6.6055 18.585 6.936 18.5005 7.244 18.562C7.08617 18.8496 7.00232 19.1719 7 19.5C7 19.864 7.105 20.201 7.276 20.4955C6.962 20.5665 6.614 20.487 6.3795 20.253L5.6585 19.532ZM9.705 22.153L8.984 22.8735L8.2635 22.153C8.15044 22.0404 8.06765 21.901 8.02281 21.7479C7.97797 21.5948 7.97253 21.4328 8.007 21.277C8.023 21.268 8.04049 21.262 8.05599 21.2525C8.34508 21.4125 8.6696 21.4975 9 21.5C9.3465 21.5 9.66749 21.4035 9.95199 21.248C9.97099 21.323 9.984 21.4 9.984 21.479C9.984 21.7335 9.88499 21.9725 9.705 22.153ZM11.604 20.2695C11.3765 20.497 11.036 20.5815 10.724 20.5145L10.719 20.5045C10.9009 20.2008 10.9979 19.8539 11 19.5C11 19.164 10.9085 18.8515 10.7615 18.573C11.0615 18.5225 11.384 18.6075 11.6045 18.8275L12.3255 19.548L11.604 20.2695Z" fill="#6B7280"/>
<path d="M28.5 8C27.1215 8 26 9.1215 26 10.5V13H19.5C18.924 13.0009 18.3659 13.2003 17.9198 13.5646C17.4736 13.9289 17.1666 14.4358 17.0505 15H17V8.5C17 7.397 16.103 6.5 15 6.5C14.634 6.5 14.2955 6.606 14 6.778V4.5C14 3.397 13.103 2.5 12 2.5C11.634 2.5 11.2955 2.606 11 2.778V2.5C11 1.397 10.103 0.5 9 0.5C7.897 0.5 7 1.397 7 2.5V2.778C6.69733 2.59804 6.35213 2.50207 6 2.5C4.897 2.5 4 3.397 4 4.5V10.555C3.67489 10.2211 3.28617 9.95567 2.85678 9.77446C2.42739 9.59326 1.96605 9.49994 1.5 9.5C0.673 9.5 0 10.173 0 11C0 12.026 0.0815 13.8975 0.2415 16.5635C0.391702 19.166 1.35675 21.6553 3 23.679V31.5H15V23.6495C16.0985 21.9528 16.7658 20.0134 16.944 18H17.0505C17.1665 18.5642 17.4735 19.0712 17.9197 19.4355C18.3659 19.7998 18.924 19.9992 19.5 20H27.5C29.43 20 31 18.43 31 16.5V10.5C31 9.1215 29.8785 8 28.5 8ZM17 16V17H14.618L13.0655 16.224C13.0415 16.2123 13.0222 16.1927 13.0107 16.1686C12.9993 16.1444 12.9964 16.1171 13.0025 16.0911C13.0086 16.0651 13.0233 16.0419 13.0443 16.0253C13.0653 16.0088 13.0913 15.9999 13.118 16H17ZM14.084 23.2225L14 23.3485V30.5H8.2405C8.43281 30.1631 8.70169 29.8761 9.02542 29.6624C9.34914 29.4486 9.71863 29.314 10.104 29.2695L10.888 29.1825C11.4689 29.1184 12.0056 28.8422 12.3954 28.4068C12.7851 27.9714 13.0004 27.4074 13 26.823C12.9993 26.2071 12.7544 25.6166 12.3189 25.1811C11.8834 24.7456 11.2929 24.5007 10.677 24.5H10.5C9.673 24.5 9 25.173 9 26C9 26.827 9.673 27.5 10.5 27.5H11V26.5H10.5C10.2245 26.5 10 26.2755 10 26C10 25.7245 10.2245 25.5 10.5 25.5H10.677C11.0278 25.5004 11.364 25.6399 11.6121 25.8879C11.8601 26.136 11.9996 26.4722 12 26.823C12.0003 27.1612 11.8758 27.4876 11.6503 27.7396C11.4247 27.9915 11.1141 28.1514 10.778 28.1885L9.994 28.2755C8.6955 28.4195 7.5975 29.2965 7.142 30.5H5.638C6.00856 29.2619 6.76653 28.1753 7.8005 27.4L7.2005 26.6C5.91567 27.5653 5.00049 28.9418 4.6075 30.5H4V23.319L3.884 23.18C2.30825 21.2963 1.38098 18.9553 1.2395 16.5035C1.083 13.895 1 11.9915 1 11C1 10.7245 1.2245 10.5 1.5 10.5C2.8785 10.5 4 11.6215 4 13V17H5V4.5C5 3.9485 5.4485 3.5 6 3.5C6.5515 3.5 7 3.9485 7 4.5V14H8V2.5C8 1.9485 8.4485 1.5 9 1.5C9.5515 1.5 10 1.9485 10 2.5V14H11V4.5C11 3.9485 11.4485 3.5 12 3.5C12.5515 3.5 13 3.9485 13 4.5V14H14V8.5C14 7.9485 14.4485 7.5 15 7.5C15.5515 7.5 16 7.9485 16 8.5V15H13.118C12.8216 15.0003 12.5374 15.1181 12.3277 15.3277C12.1181 15.5374 12.0003 15.8216 12 16.118C12 16.544 12.237 16.9275 12.618 17.118L14.171 17.8945C14.309 17.9635 14.4635 18 14.618 18H15.941C15.7605 19.867 15.1227 21.6607 14.084 23.2225ZM28.5 9C29.327 9 30 9.673 30 10.5V14.513C29.581 14.1955 29.065 14 28.5 14C27.935 14 27.419 14.1955 27 14.513V10.5C27 9.673 27.673 9 28.5 9ZM18 17.5V15.5C18 14.673 18.673 14 19.5 14H20V19H19.5C18.673 19 18 18.327 18 17.5ZM27.5 19H21V14H26V16.5C26 17.327 26.673 18 27.5 18C28.327 18 29 17.327 29 16.5V16H28V16.5C28 16.7755 27.7755 17 27.5 17C27.2245 17 27 16.7755 27 16.5C27 15.673 27.673 15 28.5 15C29.327 15 30 15.673 30 16.5C30 17.8785 28.8785 19 27.5 19Z" fill="#6B7280"/>
</svg>
