<svg width="54" height="54" viewBox="0 0 54 54" fill="none" xmlns="http://www.w3.org/2000/svg">
<path d="M27 0.125C28.4028 0.125001 29.5458 0.715205 30.5859 1.50879C31.56 2.25201 32.6346 3.32682 33.8916 4.58398L33.9805 4.67285C35.2668 5.95917 36.3886 6.46582 38.1201 6.46582C38.3365 6.46581 38.611 6.458 38.9209 6.44922C39.7078 6.42693 40.7255 6.39762 41.6143 6.47266C42.9182 6.58277 44.5514 6.93381 45.7969 8.16895C47.0517 9.41354 47.4109 11.0532 47.5244 12.3652C47.602 13.2623 47.5731 14.2885 47.5508 15.0811C47.5421 15.3898 47.5342 15.6632 47.5342 15.8799C47.5342 17.007 47.6598 17.6366 47.877 18.1338C48.1 18.6444 48.4931 19.1854 49.3271 20.0195L49.416 20.1084C50.6732 21.3654 51.748 22.44 52.4912 23.4141C53.2848 24.4542 53.875 25.5971 53.875 27C53.875 28.4028 53.2848 29.5458 52.4912 30.5859C51.7478 31.5603 50.6726 32.6351 49.415 33.8926L49.3271 33.9805C48.4931 34.8145 48.1 35.3556 47.877 35.8662C47.6598 36.3634 47.5342 36.9931 47.5342 38.1201C47.5342 38.3368 47.5421 38.6112 47.5508 38.9199C47.5731 39.7125 47.602 40.7378 47.5244 41.6348C47.4109 42.9468 47.0517 44.5865 45.7969 45.8311C44.5514 47.0661 42.9181 47.4172 41.6143 47.5273C40.7255 47.6024 39.7078 47.5731 38.9209 47.5508C38.611 47.542 38.3365 47.5342 38.1201 47.5342C37.0173 47.5342 36.3971 47.6453 35.9092 47.8467C35.4216 48.0479 34.8997 48.4079 34.1143 49.1934C33.9466 49.3611 33.7256 49.5979 33.4707 49.8711C32.8958 50.4873 32.1483 51.2892 31.4502 51.8994C30.3908 52.8254 28.8711 53.875 27 53.875C25.129 53.875 23.6093 52.8254 22.5498 51.8994C21.8517 51.2892 21.1042 50.4873 20.5293 49.8711C20.2744 49.5979 20.0534 49.3611 19.8857 49.1934C19.1003 48.4079 18.5784 48.0479 18.0908 47.8467C17.6029 47.6453 16.9827 47.5342 15.8799 47.5342C15.6635 47.5342 15.389 47.542 15.0791 47.5508C14.2922 47.5731 13.2745 47.6024 12.3857 47.5273C11.0819 47.4172 9.44856 47.0661 8.20312 45.8311C6.94828 44.5865 6.58908 42.9468 6.47559 41.6348C6.39801 40.7378 6.42692 39.7125 6.44922 38.9199C6.45791 38.6109 6.46581 38.337 6.46582 38.1201C6.46582 36.9931 6.3402 36.3634 6.12305 35.8662C5.90003 35.3556 5.50693 34.8145 4.67285 33.9805L4.58496 33.8926C3.32736 32.6351 2.25221 31.5603 1.50879 30.5859C0.715207 29.5458 0.125038 28.4028 0.125 27C0.12502 25.5972 0.715221 24.4542 1.50879 23.4141C2.252 22.44 3.32682 21.3654 4.58398 20.1084L4.67285 20.0195C5.95943 18.7329 6.46582 17.6109 6.46582 15.8799C6.46581 15.6635 6.458 15.389 6.44922 15.0791C6.42693 14.2922 6.39762 13.2745 6.47266 12.3857C6.58276 11.0819 6.93386 9.44859 8.16895 8.20312C9.41353 6.94826 11.0532 6.58907 12.3652 6.47559C13.2622 6.39801 14.2875 6.42692 15.0801 6.44922C15.3891 6.45791 15.663 6.46581 15.8799 6.46582C17.6109 6.46582 18.7329 5.9594 20.0195 4.67285L20.1084 4.58398C21.3654 3.32682 22.44 2.25201 23.4141 1.50879C24.4542 0.715206 25.5972 0.125 27 0.125ZM36.7178 19.5957C36.08 18.3712 34.5702 17.8956 33.3457 18.5332C29.7758 20.3925 26.863 23.9522 24.9385 26.7588C24.3962 27.5496 23.9136 28.308 23.499 28.9932C23.2161 28.7537 22.9432 28.5382 22.6914 28.3486C22.1532 27.9434 21.6689 27.6238 21.3154 27.4033L20.6973 27.0381L20.6934 27.0361C19.4802 26.3772 17.9628 26.8261 17.3037 28.0391C16.6449 29.252 17.0942 30.7704 18.3066 31.4297C18.6658 31.6569 19.4441 32.1572 19.6836 32.3428C20.5175 32.9707 21.3673 33.7594 21.8828 34.5801C22.3671 35.3511 23.2326 35.7976 24.1416 35.7461C25.0504 35.6946 25.8597 35.1525 26.2539 34.332C26.3818 34.0743 26.7067 33.4377 26.9824 32.9512C27.47 32.0739 28.1795 30.8737 29.0625 29.5859C30.8879 26.9239 33.2253 24.2334 35.6553 22.9678C36.8797 22.33 37.3555 20.8202 36.7178 19.5957Z" fill="white"/>
</svg>
