<svg width="16" height="16" viewBox="0 0 16 16" fill="none" xmlns="http://www.w3.org/2000/svg">
<path d="M2.4 9.27273V1M2.4 9.27273C2.7713 9.27273 3.1274 9.40682 3.38995 9.6455C3.6525 9.88418 3.8 10.2079 3.8 10.5455C3.8 10.883 3.6525 11.2067 3.38995 11.4454C3.1274 11.6841 2.7713 11.8182 2.4 11.8182M2.4 9.27273C2.0287 9.27273 1.6726 9.40682 1.41005 9.6455C1.1475 9.88418 1 10.2079 1 10.5455C1 10.883 1.1475 11.2067 1.41005 11.4454C1.6726 11.6841 2.0287 11.8182 2.4 11.8182M2.4 11.8182V15M13.6 9.27273V1M13.6 9.27273C13.9713 9.27273 14.3274 9.40682 14.5899 9.6455C14.8525 9.88418 15 10.2079 15 10.5455C15 10.883 14.8525 11.2067 14.5899 11.4454C14.3274 11.6841 13.9713 11.8182 13.6 11.8182M13.6 9.27273C13.2287 9.27273 12.8726 9.40682 12.6101 9.6455C12.3475 9.88418 12.2 10.2079 12.2 10.5455C12.2 10.883 12.3475 11.2067 12.6101 11.4454C12.8726 11.6841 13.2287 11.8182 13.6 11.8182M13.6 11.8182V15M8 4.18182V1M8 4.18182C8.3713 4.18182 8.7274 4.31591 8.98995 4.55459C9.2525 4.79327 9.4 5.117 9.4 5.45455C9.4 5.79209 9.2525 6.11582 8.98995 6.3545C8.7274 6.59318 8.3713 6.72727 8 6.72727M8 4.18182C7.6287 4.18182 7.2726 4.31591 7.01005 4.55459C6.7475 4.79327 6.6 5.117 6.6 5.45455C6.6 5.79209 6.7475 6.11582 7.01005 6.3545C7.2726 6.59318 7.6287 6.72727 8 6.72727M8 6.72727V15" stroke="#6B7280" stroke-width="1.33" stroke-linecap="round" stroke-linejoin="round"/>
</svg>
