<svg width="14" height="14" viewBox="0 0 14 14" fill="none" xmlns="http://www.w3.org/2000/svg">
<g clip-path="url(#clip0_195_2489)">
<path d="M1.16667 10.4999V12.2499C1.16667 12.5999 1.4 12.8333 1.75 12.8333H4.08333V11.0833H5.83333V9.33326H7L7.81667 8.5166C8.6274 8.79902 9.50999 8.79794 10.32 8.51354C11.1301 8.22914 11.8196 7.67825 12.2759 6.951C12.7321 6.22376 12.9281 5.3632 12.8316 4.51011C12.7352 3.65702 12.3521 2.86191 11.7451 2.25485C11.138 1.64778 10.3429 1.2647 9.48982 1.16828C8.63673 1.07186 7.77618 1.2678 7.04893 1.72405C6.32168 2.18031 5.7708 2.86986 5.4864 3.6799C5.202 4.48994 5.20092 5.37253 5.48333 6.18326L1.16667 10.4999Z" stroke="#6B7280" stroke-linecap="round" stroke-linejoin="round"/>
<path d="M9.625 4.66658C9.78608 4.66658 9.91667 4.536 9.91667 4.37492C9.91667 4.21384 9.78608 4.08325 9.625 4.08325C9.46392 4.08325 9.33333 4.21384 9.33333 4.37492C9.33333 4.536 9.46392 4.66658 9.625 4.66658Z" stroke="#6B7280" stroke-linecap="round" stroke-linejoin="round"/>
</g>
<defs>
<clipPath id="clip0_195_2489">
<rect width="14" height="14" fill="white"/>
</clipPath>
</defs>
</svg>
