<svg width="167" height="60" viewBox="0 0 167 60" fill="none" xmlns="http://www.w3.org/2000/svg">
<g clip-path="url(#clip0_1_80341)">
<path d="M5.69553 44.1567C4.04143 44.1567 2.77527 43.7149 1.90242 42.8205C1.02419 41.9315 0.587769 40.5737 0.587769 38.7472V18.0791H5.19984V38.5748C5.19984 39.6955 5.6632 40.2558 6.6007 40.2558C6.8701 40.2558 7.16104 40.2127 7.46277 40.1265L7.67829 40.1912L8.10932 43.7257C7.8507 43.855 7.50587 43.9519 7.07484 44.0274C6.65458 44.1136 6.1966 44.1567 5.69553 44.1567Z" fill="#9333EA"/>
<path d="M15.7698 44.1562C14.5899 44.1562 13.5715 43.9407 12.7095 43.5097C11.8474 43.0786 11.1793 42.4482 10.7052 41.6131C10.2418 40.7672 10.0155 39.7543 10.0155 38.5743C10.0155 37.4967 10.2418 36.5916 10.7052 35.8588C11.1793 35.1153 11.9013 34.501 12.8819 34.0269C13.8571 33.5528 15.1286 33.1972 16.6965 32.9493C17.8011 32.7661 18.6362 32.5722 19.1965 32.3674C19.7677 32.1519 20.1556 31.9148 20.3603 31.6562C20.5597 31.3868 20.6621 31.042 20.6621 30.6217C20.6621 30.0345 20.4519 29.5873 20.0371 29.2855C19.633 28.973 18.9595 28.8114 18.0112 28.8114C16.9875 28.8114 16.0123 29.0431 15.0802 29.501C14.1588 29.9482 13.3614 30.5463 12.6879 31.2898H12.3646L10.425 28.3804C11.3571 27.3459 12.494 26.5431 13.8302 25.9666C15.1771 25.3954 16.6427 25.1045 18.2267 25.1045C20.6674 25.1045 22.4293 25.6217 23.5069 26.6562C24.5952 27.6799 25.1448 29.1454 25.1448 31.0528V39.0269C25.1448 39.8459 25.5004 40.2554 26.2224 40.2554C26.508 40.2554 26.7827 40.2069 27.0414 40.1045L27.2784 40.1691L27.6017 43.3804C27.3539 43.5528 27.0037 43.6929 26.5457 43.7898C26.0823 43.8868 25.5812 43.9407 25.0371 43.9407C23.9433 43.9407 23.0866 43.736 22.4724 43.3157C21.8528 42.8847 21.4164 42.2273 21.1577 41.3329L20.7914 41.2898C19.897 43.2026 18.2267 44.1562 15.7698 44.1562ZM17.2353 40.7079C18.2968 40.7079 19.1427 40.3577 19.7784 39.6519C20.425 38.9353 20.7483 37.9385 20.7483 36.6562V34.7812L20.425 34.7166C20.1502 34.9482 19.7892 35.1422 19.3474 35.2985C18.9002 35.4439 18.2536 35.5894 17.4077 35.7295C16.4002 35.8911 15.6728 36.1767 15.231 36.5916C14.8 36.9957 14.5845 37.5614 14.5845 38.2941C14.5845 39.0862 14.8108 39.6896 15.2741 40.1045C15.7483 40.5086 16.4002 40.7079 17.2353 40.7079Z" fill="#9333EA"/>
<path d="M40.6047 43.8123H35.109L28.3202 25.4502H33.1478L37.7167 38.5321H38.1047L42.6736 25.4502H47.3935L40.6047 43.8123Z" fill="#9333EA"/>
<path d="M65.8581 35.6648H54.0478C54.1878 37.2758 54.6512 38.445 55.4271 39.1778C56.2029 39.8998 57.259 40.2554 58.5952 40.2554C59.6566 40.2554 60.5133 40.0614 61.1598 39.6735C61.8172 39.2748 62.3506 38.6713 62.7547 37.8631H63.0995L66.1598 39.8243C65.5564 41.1174 64.6512 42.1681 63.4443 42.9709C62.2374 43.7629 60.621 44.1562 58.5952 44.1562C56.6986 44.1562 55.0607 43.8006 53.6814 43.0786C52.3021 42.362 51.2299 41.2898 50.4702 39.8674C49.7213 38.4342 49.3495 36.6885 49.3495 34.6304C49.3495 32.5506 49.7428 30.7941 50.5348 29.3717C51.3215 27.9385 52.3883 26.8663 53.7245 26.1605C55.0715 25.4601 56.5909 25.1045 58.2719 25.1045C60.8581 25.1045 62.8409 25.7941 64.2202 27.1735C65.6103 28.542 66.3107 30.5571 66.3107 33.2295C66.3107 34.1939 66.273 34.9429 66.2029 35.4709L65.8581 35.6648ZM61.8926 32.6907C61.8495 31.3006 61.5262 30.2877 60.9228 29.6519C60.3193 29.0054 59.4357 28.6821 58.2719 28.6821C55.9443 28.6821 54.5704 30.0183 54.1555 32.6907H61.8926Z" fill="#9333EA"/>
<path d="M76.2683 44.1562C75.0021 44.1562 73.8437 44.0107 72.7984 43.7252C71.764 43.4235 70.8696 43.014 70.126 42.4967C69.3933 41.9795 68.8545 41.3922 68.5096 40.7295L71.0743 37.9709H71.4191C72.0226 38.7898 72.7392 39.4095 73.5743 39.8243C74.404 40.2284 75.3092 40.4278 76.2898 40.4278C77.195 40.4278 77.8685 40.2715 78.3157 39.9536C78.7737 39.625 79.0053 39.167 79.0053 38.5743C79.0053 38.1002 78.8383 37.7069 78.5096 37.389C78.1756 37.0765 77.6476 36.8286 76.9148 36.6562L74.501 36.0743C72.6745 35.6433 71.3383 34.986 70.4924 34.0916C69.6573 33.1864 69.2424 32.0549 69.2424 30.6864C69.2424 29.5388 69.528 28.5474 70.1045 27.7123C70.6918 26.8663 71.5161 26.2198 72.5829 25.7726C73.6443 25.3308 74.8782 25.1045 76.2898 25.1045C77.9385 25.1045 79.3124 25.3416 80.4062 25.8157C81.4946 26.2898 82.3459 26.931 82.9493 27.7338L80.4924 30.3847H80.1476C79.6411 29.8135 79.07 29.3933 78.4234 29.1347C77.7877 28.8653 77.0765 28.7252 76.2898 28.7252C74.4633 28.7252 73.5527 29.2963 73.5527 30.4278C73.5527 30.9019 73.7252 31.2898 74.07 31.5916C74.4148 31.8933 75.0075 32.1411 75.8588 32.3243L78.1217 32.82C79.9859 33.2241 81.3545 33.8707 82.2165 34.7597C83.0786 35.6379 83.5096 36.8179 83.5096 38.2941C83.5096 39.4579 83.2133 40.487 82.626 41.376C82.0495 42.2704 81.2144 42.9601 80.126 43.445C79.0484 43.9191 77.7607 44.1562 76.2683 44.1562Z" fill="#9333EA"/>
<path d="M95.3075 44.1562C93.5241 44.1562 91.9508 43.7898 90.5877 43.0571C89.2192 42.3135 88.1524 41.2252 87.3765 39.8028C86.6114 38.3696 86.2343 36.6454 86.2343 34.6304C86.2343 32.6207 86.6114 30.8965 87.3765 29.4579C88.1524 28.0248 89.2138 26.9364 90.5661 26.2036C91.9293 25.4709 93.481 25.1045 95.2213 25.1045C99.0845 25.1045 101.563 26.5054 102.657 29.3071L99.4886 31.57H99.1437C98.7666 30.7079 98.2817 30.0722 97.6782 29.6519C97.0748 29.2209 96.2558 29.0054 95.2213 29.0054C93.8851 29.0054 92.8399 29.4741 92.0963 30.4062C91.3636 31.3276 90.9972 32.7338 90.9972 34.6304C90.9972 36.5269 91.369 37.9439 92.1179 38.876C92.8776 39.7974 93.939 40.2554 95.3075 40.2554C96.2989 40.2554 97.1394 39.9913 97.8291 39.4579C98.5295 38.9138 99.036 38.1325 99.3377 37.1088L99.6825 37.0873L102.958 38.876C102.495 40.4278 101.633 41.6993 100.372 42.6907C99.106 43.6713 97.4196 44.1562 95.3075 44.1562Z" fill="#9333EA"/>
<path d="M110.674 44.1562C109.494 44.1562 108.476 43.9407 107.614 43.5097C106.752 43.0786 106.084 42.4482 105.609 41.6131C105.146 40.7672 104.92 39.7543 104.92 38.5743C104.92 37.4967 105.146 36.5916 105.609 35.8588C106.084 35.1153 106.806 34.501 107.786 34.0269C108.761 33.5528 110.033 33.1972 111.601 32.9493C112.705 32.7661 113.54 32.5722 114.101 32.3674C114.672 32.1519 115.06 31.9148 115.265 31.6562C115.464 31.3868 115.566 31.042 115.566 30.6217C115.566 30.0345 115.356 29.5873 114.941 29.2855C114.537 28.973 113.864 28.8114 112.915 28.8114C111.892 28.8114 110.917 29.0431 109.984 29.501C109.063 29.9482 108.266 30.5463 107.592 31.2898H107.269L105.329 28.3804C106.261 27.3459 107.398 26.5431 108.734 25.9666C110.081 25.3954 111.547 25.1045 113.131 25.1045C115.572 25.1045 117.334 25.6217 118.411 26.6562C119.5 27.6799 120.049 29.1454 120.049 31.0528V39.0269C120.049 39.8459 120.405 40.2554 121.127 40.2554C121.412 40.2554 121.687 40.2069 121.946 40.1045L122.183 40.1691L122.506 43.3804C122.258 43.5528 121.908 43.6929 121.45 43.7898C120.987 43.8868 120.486 43.9407 119.941 43.9407C118.848 43.9407 117.991 43.736 117.377 43.3157C116.757 42.8847 116.321 42.2273 116.062 41.3329L115.696 41.2898C114.801 43.2026 113.131 44.1562 110.674 44.1562ZM112.14 40.7079C113.201 40.7079 114.047 40.3577 114.683 39.6519C115.329 38.9353 115.653 37.9385 115.653 36.6562V34.7812L115.329 34.7166C115.054 34.9482 114.694 35.1422 114.252 35.2985C113.804 35.4439 113.158 35.5894 112.312 35.7295C111.304 35.8911 110.577 36.1767 110.135 36.5916C109.704 36.9957 109.489 37.5614 109.489 38.2941C109.489 39.0862 109.715 39.6896 110.178 40.1045C110.653 40.5086 111.304 40.7079 112.14 40.7079Z" fill="#9333EA"/>
<path d="M125.527 51.2467V25.4493H130.139V27.8416L130.484 27.9062C131.028 26.9741 131.756 26.2791 132.661 25.8157C133.577 25.3416 134.649 25.1045 135.872 25.1045C137.338 25.1045 138.62 25.4601 139.73 26.1605C140.834 26.8502 141.696 27.917 142.316 29.3502C142.93 30.7726 143.243 32.5344 143.243 34.6304C143.243 36.7316 142.909 38.4881 142.251 39.9105C141.605 41.3329 140.705 42.3997 139.557 43.1002C138.404 43.806 137.079 44.1562 135.57 44.1562C134.417 44.1562 133.426 43.9676 132.596 43.5959C131.761 43.2079 131.055 42.6153 130.484 41.8071L130.139 41.8717V51.2467H125.527ZM134.277 40.2554C135.657 40.2554 136.696 39.8135 137.402 38.9191C138.119 38.014 138.48 36.5862 138.48 34.6304C138.48 32.6907 138.119 31.2683 137.402 30.3631C136.696 29.4579 135.657 29.0054 134.277 29.0054C132.995 29.0054 131.977 29.4741 131.217 30.4062C130.452 31.3437 130.075 32.75 130.075 34.6304C130.075 36.5161 130.452 37.9224 131.217 38.8545C131.977 39.792 132.995 40.2554 134.277 40.2554Z" fill="#9333EA"/>
<path d="M163.007 35.6648H151.196C151.336 37.2758 151.8 38.445 152.576 39.1778C153.351 39.8998 154.407 40.2554 155.744 40.2554C156.805 40.2554 157.662 40.0614 158.308 39.6735C158.966 39.2748 159.499 38.6713 159.903 37.8631H160.248L163.308 39.8243C162.705 41.1174 161.8 42.1681 160.593 42.9709C159.386 43.7629 157.769 44.1562 155.744 44.1562C153.847 44.1562 152.209 43.8006 150.83 43.0786C149.451 42.362 148.378 41.2898 147.619 39.8674C146.87 38.4342 146.498 36.6885 146.498 34.6304C146.498 32.5506 146.891 30.7941 147.683 29.3717C148.47 27.9385 149.537 26.8663 150.873 26.1605C152.22 25.4601 153.739 25.1045 155.42 25.1045C158.007 25.1045 159.989 25.7941 161.369 27.1735C162.759 28.542 163.459 30.5571 163.459 33.2295C163.459 34.1939 163.421 34.9429 163.351 35.4709L163.007 35.6648ZM159.041 32.6907C158.998 31.3006 158.675 30.2877 158.071 29.6519C157.468 29.0054 156.584 28.6821 155.42 28.6821C153.093 28.6821 151.719 30.0183 151.304 32.6907H159.041Z" fill="#9333EA"/>
<path d="M103.593 16.3659C101.966 16.3659 100.738 16.1558 99.908 15.7409C99.089 15.3099 98.6796 14.5987 98.6796 13.6073C98.6796 13.2625 98.7119 12.9069 98.7873 12.5297C98.8735 12.158 98.9651 11.797 99.0675 11.4521L100.08 11.7108C100.021 11.9155 99.9565 12.1741 99.8865 12.4866C99.8272 12.7884 99.8003 13.0578 99.8003 13.284C99.8003 13.7582 99.9134 14.1407 100.145 14.4263C100.388 14.7172 100.813 14.922 101.417 15.0513C102.02 15.1806 102.861 15.2453 103.938 15.2453C104.499 15.2453 105.086 15.2183 105.705 15.159C106.32 15.089 106.934 14.9651 107.537 14.7927C108.152 14.6095 108.744 14.3616 109.305 14.0599C109.865 13.7582 110.35 13.3649 110.77 12.8746L111.632 13.3918C111.546 13.5965 111.487 13.7582 111.46 13.8875C111.427 14.006 111.417 14.1138 111.417 14.2108C111.417 14.3562 111.465 14.4909 111.567 14.6203C111.664 14.7388 111.853 14.8358 112.128 14.922C112.397 14.9974 112.796 15.0297 113.313 15.0297C113.496 15.0297 113.636 15.089 113.723 15.2021C113.82 15.3045 113.874 15.4284 113.874 15.5685C113.874 15.714 113.809 15.8487 113.68 15.978C113.55 16.0912 113.383 16.1504 113.184 16.1504C112.376 16.1504 111.718 16.0373 111.201 15.8056C110.695 15.5631 110.436 15.1752 110.425 14.6418C109.66 15.2183 108.68 15.6493 107.473 15.9349C106.277 16.2205 104.983 16.3659 103.593 16.3659ZM104.585 18.9737C104.396 18.9737 104.229 18.909 104.089 18.7797C103.96 18.6504 103.895 18.4888 103.895 18.3056C103.895 18.117 103.96 17.95 104.089 17.8099C104.229 17.6806 104.396 17.6159 104.585 17.6159C104.768 17.6159 104.93 17.6806 105.059 17.8099C105.188 17.95 105.253 18.117 105.253 18.3056C105.253 18.4888 105.188 18.6504 105.059 18.7797C104.93 18.909 104.768 18.9737 104.585 18.9737Z" fill="#9333EA"/>
<path d="M113.164 16.1495L113.293 15.0288C113.751 15.0288 114.101 15.0018 114.349 14.9426C114.608 14.8725 114.802 14.7432 114.931 14.5546C115.071 14.3553 115.179 14.0697 115.254 13.6926C115.341 13.3208 115.438 12.8305 115.556 12.2271L116.634 12.421C116.575 12.6689 116.51 12.9544 116.44 13.2831C116.364 13.601 116.332 13.865 116.332 14.0805C116.332 14.2098 116.337 14.3391 116.354 14.4684C116.381 14.587 116.451 14.6839 116.569 14.7702C116.682 14.8456 116.882 14.9102 117.173 14.9641C117.458 15.0072 117.862 15.0288 118.379 15.0288C118.579 15.0288 118.724 15.088 118.81 15.2012C118.897 15.3036 118.94 15.4275 118.94 15.5676C118.94 15.713 118.875 15.8477 118.746 15.9771C118.617 16.0902 118.45 16.1495 118.25 16.1495C117.657 16.1495 117.2 16.1171 116.871 16.0633C116.537 15.9932 116.294 15.8908 116.138 15.7615C115.976 15.6214 115.863 15.449 115.793 15.2443C115.518 15.6214 115.19 15.8639 114.802 15.9771C114.414 16.0902 113.864 16.1495 113.164 16.1495ZM116.612 18.7357C116.424 18.7357 116.257 18.6602 116.117 18.5202C115.987 18.3908 115.923 18.24 115.923 18.0676C115.923 17.879 115.987 17.712 116.117 17.5719C116.257 17.4426 116.424 17.3779 116.612 17.3779C116.785 17.3779 116.935 17.4426 117.065 17.5719C117.205 17.712 117.28 17.879 117.28 18.0676C117.28 18.24 117.205 18.3908 117.065 18.5202C116.935 18.6602 116.785 18.7357 116.612 18.7357ZM114.737 18.7357C114.549 18.7357 114.382 18.6602 114.242 18.5202C114.112 18.3908 114.048 18.24 114.048 18.0676C114.048 17.879 114.112 17.712 114.242 17.5719C114.382 17.4426 114.549 17.3779 114.737 17.3779C114.92 17.3779 115.082 17.4426 115.211 17.5719C115.341 17.712 115.405 17.879 115.405 18.0676C115.405 18.24 115.341 18.3908 115.211 18.5202C115.082 18.6602 114.92 18.7357 114.737 18.7357Z" fill="#9333EA"/>
<path d="M118.25 16.1505L118.379 15.0298H119.435C120.195 15.0298 120.755 14.9975 121.116 14.922C121.472 14.8358 121.709 14.7281 121.827 14.5988C121.941 14.4695 122 14.3294 122 14.1677C122 13.9522 121.914 13.7151 121.741 13.4565C121.58 13.1871 121.375 12.9123 121.116 12.6376C120.868 12.352 120.604 12.0718 120.319 11.797C120.028 11.5276 119.758 11.2798 119.5 11.0643C119.252 10.838 119.047 10.6333 118.875 10.4608C118.713 10.2884 118.638 10.1699 118.638 10.0945C118.638 9.8951 118.659 9.70114 118.702 9.51256C118.746 9.32937 118.816 9.1839 118.918 9.08153C119.16 8.82291 119.521 8.55351 119.996 8.26256C120.48 7.977 121.035 7.68066 121.655 7.37894C122.269 7.07722 122.905 6.76472 123.552 6.43066L124.004 7.4436C123.196 7.84769 122.409 8.23562 121.633 8.60739C120.868 8.98454 120.211 9.37247 119.651 9.77118C120.136 10.2022 120.599 10.6225 121.03 11.0212C121.472 11.4091 121.881 11.8348 122.258 12.2927C122.63 12.7561 122.975 13.2787 123.293 13.866C123.476 14.227 123.692 14.4856 123.94 14.6419C124.198 14.8035 124.446 14.9113 124.694 14.9651C124.936 15.0083 125.146 15.0298 125.319 15.0298C125.502 15.0298 125.642 15.0891 125.728 15.2022C125.815 15.3046 125.858 15.4285 125.858 15.5686C125.858 15.7141 125.793 15.8488 125.664 15.9781C125.534 16.0912 125.373 16.1505 125.19 16.1505C124.958 16.1505 124.699 16.1182 124.414 16.0643C124.123 16.0104 123.837 15.9026 123.552 15.741C123.261 15.5686 123.013 15.3208 122.797 14.9867C122.609 15.2453 122.377 15.4608 122.108 15.6333C121.833 15.8057 121.472 15.935 121.03 16.0212C120.599 16.1074 120.049 16.1505 119.392 16.1505H118.25Z" fill="#9333EA"/>
<path d="M125.176 16.1497L125.305 15.029C125.607 15.029 125.844 15.0182 126.016 14.9859C126.199 14.9428 126.35 14.835 126.469 14.6626C126.598 14.4902 126.711 14.2262 126.814 13.8652C126.927 13.5096 127.056 12.9978 127.202 12.335L128.236 12.6152C128.177 12.8631 128.112 13.1432 128.042 13.4557C127.967 13.7736 127.934 14.0592 127.934 14.3178C127.934 14.5495 128.02 14.7273 128.193 14.8566C128.365 14.9751 128.678 15.029 129.141 15.029C129.411 15.029 129.637 15.0075 129.809 14.9644C129.982 14.9213 130.116 14.8135 130.219 14.6411C130.332 14.4687 130.434 14.1993 130.52 13.8221C130.617 13.4342 130.72 12.9062 130.822 12.2273L131.857 12.4213C131.824 12.5937 131.792 12.8038 131.749 13.0463C131.717 13.2779 131.69 13.5096 131.663 13.7359C131.63 13.9676 131.62 14.1616 131.62 14.3178C131.62 14.4471 131.647 14.571 131.706 14.6842C131.76 14.7866 131.878 14.8728 132.051 14.9428C132.234 15.0021 132.503 15.029 132.848 15.029C133.247 15.029 133.565 14.959 133.796 14.8135C134.039 14.6572 134.163 14.3394 134.163 13.8652C134.163 13.5204 134.077 13.0894 133.904 12.5721C133.742 12.0441 133.565 11.5161 133.365 10.9988L134.486 10.5894C134.583 10.8911 134.685 11.2305 134.788 11.6023C134.901 11.9633 134.992 12.3297 135.068 12.7014C135.154 13.0624 135.197 13.3803 135.197 13.6497C135.197 14.501 134.982 15.1314 134.551 15.5463C134.13 15.9503 133.565 16.1497 132.848 16.1497C132.342 16.1497 131.948 16.085 131.663 15.9557C131.372 15.8264 131.167 15.6217 131.038 15.3307C130.822 15.6756 130.564 15.9019 130.262 15.9988C129.96 16.0958 129.529 16.1497 128.969 16.1497C128.78 16.1497 128.581 16.1281 128.365 16.085C128.15 16.0419 127.945 15.9557 127.762 15.8264C127.589 15.6863 127.449 15.4816 127.352 15.223C127.105 15.6271 126.803 15.8857 126.447 15.9988C126.102 16.0958 125.677 16.1497 125.176 16.1497Z" fill="#9333EA"/>
<path d="M139.607 16.1057C139.607 15.777 139.65 15.4106 139.737 15.0065C139.834 14.6078 139.984 14.166 140.189 13.6919L141.159 14.0583C141.014 14.4462 140.906 14.8018 140.836 15.1143C140.76 15.4322 140.728 15.7285 140.728 15.9979C140.728 16.5152 140.868 16.9247 141.159 17.2264C141.461 17.5389 141.854 17.7706 142.344 17.916C142.829 18.0723 143.363 18.1531 143.939 18.1531C144.64 18.1531 145.281 18.0669 145.857 17.8945C146.428 17.7328 146.892 17.5173 147.237 17.2479C147.592 16.9731 147.775 16.6768 147.775 16.3643C147.775 16.1165 147.587 15.9117 147.215 15.7393C146.854 15.5669 146.342 15.3891 145.685 15.2005L145.944 14.0798C146.892 14.457 147.63 14.7048 148.163 14.8341C148.691 14.9634 149.095 15.0281 149.37 15.0281C149.57 15.0281 149.715 15.0874 149.801 15.2005C149.887 15.3029 149.931 15.4268 149.931 15.5669C149.931 15.7124 149.866 15.8471 149.737 15.9764C149.607 16.0895 149.44 16.1488 149.241 16.1488H148.724C148.734 16.235 148.751 16.2997 148.767 16.3428C148.778 16.3966 148.788 16.4721 148.788 16.5583C148.788 17.0001 148.578 17.4257 148.163 17.8298C147.759 18.2447 147.172 18.5841 146.396 18.8428C145.631 19.1122 144.715 19.2522 143.637 19.2522C142.915 19.2522 142.247 19.1337 141.633 18.9074C141.03 18.6757 140.539 18.3255 140.168 17.8514C139.79 17.388 139.607 16.8061 139.607 16.1057ZM144.629 21.8384C144.44 21.8384 144.273 21.763 144.133 21.6229C144.004 21.4936 143.939 21.3428 143.939 21.1703C143.939 20.9818 144.004 20.8147 144.133 20.6747C144.273 20.5453 144.44 20.4807 144.629 20.4807C144.801 20.4807 144.952 20.5453 145.081 20.6747C145.222 20.8147 145.297 20.9818 145.297 21.1703C145.297 21.3428 145.222 21.4936 145.081 21.6229C144.952 21.763 144.801 21.8384 144.629 21.8384ZM142.754 21.8384C142.565 21.8384 142.398 21.763 142.258 21.6229C142.129 21.4936 142.064 21.3428 142.064 21.1703C142.064 20.9818 142.129 20.8147 142.258 20.6747C142.398 20.5453 142.565 20.4807 142.754 20.4807C142.937 20.4807 143.099 20.5453 143.228 20.6747C143.357 20.8147 143.422 20.9818 143.422 21.1703C143.422 21.3428 143.357 21.4936 143.228 21.6229C143.099 21.763 142.937 21.8384 142.754 21.8384Z" fill="#9333EA"/>
<path d="M149.234 16.1503L149.364 15.0296C149.665 15.0296 150.01 15.0296 150.398 15.0296C150.786 15.0296 151.158 15.0188 151.519 14.9865C151.891 14.9434 152.176 14.8895 152.381 14.8141C152.666 14.7171 152.898 14.5878 153.07 14.4262C153.254 14.2699 153.394 14.0598 153.48 13.8012C153.318 13.8604 153.146 13.9035 152.963 13.9305C152.774 13.9466 152.586 13.952 152.402 13.952C151.713 13.952 151.179 13.7958 150.808 13.4779C150.43 13.1492 150.247 12.7343 150.247 12.2279C150.247 11.883 150.296 11.5382 150.398 11.1934C150.511 10.8378 150.667 10.5145 150.872 10.2236C151.072 9.93801 151.309 9.70632 151.583 9.53391C151.869 9.35072 152.187 9.25374 152.532 9.25374C153.017 9.25374 153.421 9.42076 153.739 9.74943C154.067 10.0673 154.31 10.4822 154.471 10.9994C154.628 11.5059 154.708 12.0447 154.708 12.6158C154.708 13.2947 154.59 13.8766 154.364 14.3615C154.132 14.8518 153.749 15.2559 153.221 15.5684C152.93 15.73 152.575 15.8486 152.144 15.9348C151.723 16.021 151.266 16.0802 150.764 16.1072C150.274 16.1341 149.762 16.1503 149.234 16.1503ZM151.325 11.9477C151.325 12.2387 151.411 12.4649 151.583 12.6374C151.767 12.799 152.084 12.8744 152.532 12.8744C152.92 12.8744 153.291 12.8259 153.652 12.7236C153.652 12.6697 153.652 12.605 153.652 12.5296C153.652 12.1578 153.598 11.8076 153.501 11.4736C153.399 11.1449 153.254 10.8809 153.07 10.6762C152.898 10.4768 152.683 10.3744 152.424 10.3744C152.208 10.3744 152.014 10.4552 151.842 10.6115C151.68 10.7731 151.551 10.9725 151.454 11.2149C151.368 11.4628 151.325 11.7052 151.325 11.9477ZM152.273 7.85288C152.084 7.85288 151.917 7.78822 151.777 7.65891C151.648 7.51882 151.583 7.35719 151.583 7.18477C151.583 7.00158 151.648 6.83994 151.777 6.71063C151.917 6.57055 152.084 6.49512 152.273 6.49512C152.456 6.49512 152.618 6.57055 152.747 6.71063C152.876 6.83994 152.941 7.00158 152.941 7.18477C152.941 7.35719 152.876 7.51882 152.747 7.65891C152.618 7.78822 152.456 7.85288 152.273 7.85288Z" fill="#9333EA"/>
<path d="M160.695 8.77812C160.695 8.57876 160.678 8.3417 160.652 8.06691C160.619 7.78135 160.587 7.49579 160.544 7.20484C160.511 6.91928 160.479 6.67683 160.436 6.47208L161.621 6.34277C161.648 6.53135 161.675 6.77381 161.708 7.07553C161.735 7.36648 161.756 7.65743 161.772 7.95915C161.799 8.2501 161.815 8.48717 161.815 8.67036C161.815 9.24687 161.756 9.80721 161.643 10.3514C161.541 10.8848 161.374 11.402 161.147 11.9031C161.562 12.3503 161.869 12.7598 162.074 13.1316C162.273 13.5087 162.376 13.8805 162.376 14.2523C162.376 14.5109 162.311 14.7857 162.182 15.0712C162.063 15.3622 161.837 15.6046 161.492 15.804C161.158 15.9926 160.673 16.0842 160.027 16.0842H156.902V14.985C158.265 14.0098 159.235 13.04 159.811 12.0755C159.305 11.6176 158.712 11.1273 158.022 10.61C157.333 10.0928 156.611 9.57014 155.867 9.03674L156.514 8.13157C157.316 8.73501 158.033 9.28458 158.669 9.7695C159.299 10.2436 159.838 10.6908 160.285 11.1057C160.425 10.7501 160.528 10.3729 160.587 9.98501C160.657 9.59708 160.695 9.19838 160.695 8.77812ZM158.518 14.9635H160.242C160.7 14.9635 161.002 14.888 161.147 14.7264C161.287 14.554 161.363 14.3546 161.363 14.1229C161.363 13.9667 161.298 13.7781 161.169 13.5626C161.039 13.3471 160.856 13.11 160.63 12.8514C160.371 13.2393 160.059 13.6165 159.703 13.9721C159.358 14.3169 158.96 14.651 158.518 14.9635Z" fill="#9333EA"/>
<path d="M5.10469 54.7157H1.40423C1.42005 55.372 1.57819 55.8543 1.87865 56.1706C2.17121 56.471 2.57446 56.6134 3.08051 56.6134C3.46004 56.6134 3.76051 56.5501 3.99772 56.4236C4.22702 56.2813 4.41679 56.0599 4.56702 55.7594H4.6619L5.16795 56.0757C5.01772 56.4552 4.76469 56.7636 4.40888 56.9929C4.06888 57.2064 3.62609 57.3092 3.08051 57.3092C2.55074 57.3092 2.10005 57.2143 1.72051 57.0245C1.35679 56.8189 1.07214 56.5027 0.86656 56.0757C0.676793 55.6566 0.581909 55.1427 0.581909 54.5259C0.581909 53.9171 0.684699 53.4031 0.898188 52.9762C1.10377 52.5571 1.38842 52.2487 1.75214 52.059C2.13167 51.8534 2.55074 51.7427 3.01725 51.7427C3.71307 51.7427 4.25074 51.9324 4.63027 52.312C5.02562 52.6915 5.2312 53.2766 5.2312 54.0515C5.2312 54.352 5.21539 54.5496 5.19958 54.6524L5.10469 54.7157ZM4.44051 54.0515C4.44051 53.4822 4.314 53.071 4.06097 52.818C3.82377 52.5492 3.47586 52.4069 3.01725 52.4069C2.55074 52.4069 2.17912 52.5492 1.91028 52.818C1.65726 53.071 1.49912 53.4822 1.43586 54.0515H4.44051Z" fill="black"/>
<path d="M6.83381 57.2146H5.97986L7.62451 54.4314L6.04311 51.8379H6.96032L8.19381 53.8937H8.32032L9.55381 51.8379H10.4078L8.88962 54.4314L10.5026 57.2146H9.61706L8.28869 54.9374H8.16218L6.83381 57.2146Z" fill="black"/>
<path d="M11.6971 59.3966V51.8376H12.4878V52.6283L12.5827 52.6599C12.9781 52.051 13.5711 51.7427 14.3539 51.7427C14.7967 51.7427 15.1841 51.8534 15.5241 52.059C15.8562 52.2487 16.1092 52.5571 16.2832 52.9762C16.4729 53.4031 16.5678 53.9171 16.5678 54.5259C16.5678 55.1427 16.4729 55.6566 16.2832 56.0757C16.0934 56.5027 15.8167 56.8189 15.4609 57.0245C15.1209 57.2143 14.7334 57.3092 14.2906 57.3092C13.9269 57.3092 13.6027 57.2459 13.3102 57.1194C13.0334 56.9929 12.7883 56.7873 12.5827 56.4869L12.4878 56.5185V59.3966H11.6971ZM14.1009 56.6134C15.192 56.6134 15.7455 55.9176 15.7455 54.5259C15.7455 53.1343 15.192 52.4385 14.1009 52.4385C13.7846 52.4385 13.4999 52.5176 13.2469 52.6599C13.0097 52.8101 12.8199 53.0394 12.6776 53.3557C12.5511 53.6562 12.4878 54.0436 12.4878 54.5259C12.4878 54.9924 12.5511 55.3799 12.6776 55.6962C12.8199 56.0124 13.0097 56.2496 13.2469 56.392C13.4999 56.5422 13.7846 56.6134 14.1009 56.6134Z" fill="black"/>
<path d="M19.3305 57.3092C18.951 57.3092 18.6426 57.2064 18.4133 56.9929C18.1998 56.7874 18.097 56.4553 18.097 56.0125V49.6553H18.8877V55.9808C18.8877 56.1943 18.9273 56.3525 19.0143 56.4553C19.0933 56.566 19.2356 56.6134 19.4254 56.6134C19.5282 56.6134 19.6468 56.5976 19.7733 56.5501L19.8366 56.5818L19.9315 57.1827C19.8682 57.2222 19.7812 57.2539 19.6784 57.2776C19.5677 57.2934 19.457 57.3092 19.3305 57.3092Z" fill="black"/>
<path d="M23.2089 57.3092C22.7029 57.3092 22.2601 57.2064 21.8806 56.9929C21.501 56.7873 21.2006 56.471 20.995 56.0441C20.8052 55.625 20.7103 55.1189 20.7103 54.5259C20.7103 53.9408 20.8052 53.4348 20.995 53.0078C21.2006 52.5887 21.501 52.2724 21.8806 52.059C22.2601 51.8534 22.7029 51.7427 23.2089 51.7427C23.715 51.7427 24.142 51.8534 24.5057 52.059C24.8852 52.2724 25.1778 52.5887 25.3912 53.0078C25.5968 53.4348 25.7075 53.9408 25.7075 54.5259C25.7075 55.1189 25.5968 55.625 25.3912 56.0441C25.1778 56.471 24.8852 56.7873 24.5057 56.9929C24.142 57.2064 23.715 57.3092 23.2089 57.3092ZM23.2089 56.6134C23.7308 56.6134 24.134 56.4473 24.4108 56.1073C24.7033 55.7752 24.8536 55.2455 24.8536 54.5259C24.8536 53.8143 24.7033 53.2845 24.4108 52.9445C24.134 52.6124 23.7308 52.4385 23.2089 52.4385C22.6554 52.4385 22.2364 52.6124 21.9438 52.9445C21.6671 53.2845 21.5327 53.8143 21.5327 54.5259C21.5327 55.2455 21.6671 55.7752 21.9438 56.1073C22.2364 56.4473 22.6554 56.6134 23.2089 56.6134Z" fill="black"/>
<path d="M27.2435 57.2149V51.8382H28.0026V52.6921H28.0975C28.3505 52.0833 28.8249 51.7749 29.5207 51.7749C29.8765 51.7749 30.1533 51.854 30.3431 51.9963L30.1217 52.6605L30.0268 52.6921C29.8133 52.5893 29.5919 52.534 29.3626 52.534C28.9356 52.534 28.6114 52.6921 28.3821 53.0084C28.1449 53.3247 28.0342 53.8544 28.0342 54.5898V57.2149H27.2435Z" fill="black"/>
<path d="M35.5808 54.7157H31.8803C31.8961 55.372 32.0543 55.8543 32.3547 56.1706C32.6473 56.471 33.0505 56.6134 33.5566 56.6134C33.9361 56.6134 34.2366 56.5501 34.4738 56.4236C34.7031 56.2813 34.8929 56.0599 35.0431 55.7594H35.138L35.644 56.0757C35.4938 56.4552 35.2408 56.7636 34.885 56.9929C34.545 57.2064 34.1022 57.3092 33.5566 57.3092C33.0268 57.3092 32.5761 57.2143 32.1966 57.0245C31.8329 56.8189 31.5482 56.5027 31.3426 56.0757C31.1529 55.6566 31.058 55.1427 31.058 54.5259C31.058 53.9171 31.1608 53.4031 31.3743 52.9762C31.5798 52.5571 31.8645 52.2487 32.2282 52.059C32.6077 51.8534 33.0268 51.7427 33.4933 51.7427C34.1891 51.7427 34.7268 51.9324 35.1063 52.312C35.5017 52.6915 35.7073 53.2766 35.7073 54.0515C35.7073 54.352 35.6915 54.5496 35.6757 54.6524L35.5808 54.7157ZM34.9166 54.0515C34.9166 53.4822 34.7901 53.071 34.537 52.818C34.2998 52.5492 33.9519 52.4069 33.4933 52.4069C33.0268 52.4069 32.6552 52.5492 32.3864 52.818C32.1333 53.071 31.9752 53.4822 31.9119 54.0515H34.9166Z" fill="black"/>
<path d="M41.9491 54.1151H39.1659V53.3877H41.9491V54.1151Z" fill="black"/>
<path d="M48.5398 56.3611L48.7928 56.9304C48.6663 57.057 48.4924 57.1518 48.2868 57.2151C48.097 57.2783 47.8756 57.31 47.6226 57.31C46.5868 57.31 46.0728 56.796 46.0728 55.7602V52.4709H45.1556V51.8384H46.0728V50.6998L46.8635 50.5732V51.8384H48.6031V52.4709H46.8635V55.6653C46.8635 56.2979 47.1324 56.6142 47.6859 56.6142C47.9784 56.6142 48.2314 56.5351 48.4449 56.3611H48.5398Z" fill="black"/>
<path d="M51.2191 57.3092C50.6894 57.3092 50.2782 57.1748 49.9856 56.898C49.6852 56.6292 49.5428 56.2338 49.5428 55.7278C49.5428 55.4115 49.6061 55.1506 49.7326 54.9371C49.8591 54.7078 50.0568 54.5259 50.3335 54.3994C50.6261 54.2571 50.9977 54.1385 51.4405 54.0515C51.8201 53.9883 52.1047 53.9171 52.2945 53.8301C52.5 53.751 52.6424 53.6641 52.7056 53.5771C52.7847 53.4743 52.8321 53.3399 52.8321 53.1659C52.8321 52.9366 52.7452 52.7548 52.5791 52.6283C52.4052 52.4859 52.1442 52.4069 51.7884 52.4069C51.4247 52.4069 51.1242 52.4859 50.8712 52.6283C50.634 52.7548 50.4126 52.9603 50.207 53.2292H50.1121L49.701 52.6915C49.9303 52.399 50.2149 52.1697 50.5549 51.9957C50.9108 51.8297 51.3219 51.7427 51.7884 51.7427C52.421 51.7427 52.8796 51.885 53.18 52.1538C53.4726 52.4306 53.6228 52.8101 53.6228 53.2924V56.1706C53.6228 56.471 53.7494 56.6134 54.0024 56.6134C54.0814 56.6134 54.1684 56.5976 54.2554 56.5501L54.3187 56.5817L54.4135 57.1194C54.3503 57.1669 54.2633 57.1985 54.1605 57.2143C54.0735 57.2301 53.9787 57.2459 53.8759 57.2459C53.5754 57.2459 53.354 57.1827 53.2117 57.0562C53.0614 56.9296 52.9666 56.7399 52.927 56.4869H52.8321C52.6819 56.7636 52.4684 56.9771 52.1996 57.1194C51.9466 57.2459 51.6145 57.3092 51.2191 57.3092ZM51.4089 56.6766C51.7014 56.6766 51.9545 56.6134 52.168 56.4869C52.3973 56.3445 52.5633 56.1389 52.674 55.8859C52.8005 55.6329 52.8638 55.3483 52.8638 55.032V54.3362H52.7689C52.6424 54.4231 52.4921 54.4943 52.3261 54.5576C52.1521 54.605 51.9149 54.6445 51.5987 54.6841C51.2824 54.7315 51.0294 54.7948 50.8396 54.8738C50.6656 54.9608 50.5391 55.0794 50.4601 55.2217C50.3968 55.3483 50.3652 55.5222 50.3652 55.7278C50.3652 56.0441 50.4442 56.2892 50.6182 56.4552C50.808 56.6055 51.0689 56.6766 51.4089 56.6766Z" fill="black"/>
<path d="M57.0502 57.3092C56.7102 57.3092 56.3939 57.2617 56.1014 57.1827C55.8009 57.1036 55.5479 56.985 55.3423 56.8348C55.1525 56.6687 55.026 56.4869 54.9628 56.2971L55.4056 55.791H55.5321C55.6981 56.0678 55.8958 56.2813 56.133 56.4236C56.386 56.5501 56.6865 56.6134 57.0502 56.6134C57.4297 56.6134 57.7223 56.5422 57.9358 56.392C58.1414 56.2259 58.2521 56.0045 58.2521 55.7278C58.2521 55.5222 58.1888 55.3483 58.0623 55.2217C57.9358 55.0794 57.7302 54.9687 57.4614 54.9055L56.5442 54.6524C56.0539 54.5496 55.6981 54.3678 55.4688 54.1148C55.2553 53.8617 55.1525 53.5455 55.1525 53.1659C55.1525 52.8734 55.2237 52.6203 55.3739 52.4069C55.5163 52.2013 55.7297 52.0431 56.0065 51.9324C56.299 51.8059 56.639 51.7427 57.0186 51.7427C57.5246 51.7427 57.9121 51.8217 58.1888 51.9641C58.4814 52.0906 58.7028 52.2724 58.853 52.5017L58.4102 52.9445H58.3153C58.1414 52.7548 57.9516 52.6203 57.746 52.5334C57.5563 52.4543 57.3111 52.4069 57.0186 52.4069C56.6549 52.4069 56.386 52.4701 56.1963 52.5966C56.0223 52.7231 55.9432 52.905 55.9432 53.1343C55.9432 53.3478 56.0065 53.5297 56.133 53.672C56.2595 53.7985 56.4888 53.9092 56.8288 53.9883L57.7144 54.2096C58.173 54.3203 58.513 54.4943 58.7265 54.7473C58.9321 55.0003 59.0428 55.3324 59.0428 55.7278C59.0428 56.0441 58.9637 56.3208 58.8214 56.5501C58.6711 56.7873 58.4418 56.9771 58.1256 57.1194C57.8251 57.2459 57.4693 57.3092 57.0502 57.3092Z" fill="black"/>
<path d="M63.2 56.3604L63.453 56.9297C63.3265 57.0562 63.1525 57.1511 62.947 57.2144C62.7572 57.2776 62.5358 57.3092 62.2828 57.3092C61.247 57.3092 60.733 56.7953 60.733 55.7595V52.4702H59.8158V51.8376H60.733V50.699L61.5237 50.5725V51.8376H63.2632V52.4702H61.5237V55.6646C61.5237 56.2972 61.7925 56.6134 62.346 56.6134C62.6386 56.6134 62.8916 56.5344 63.1051 56.3604H63.2Z" fill="black"/>
<path d="M68.7902 54.7157H65.0898C65.1056 55.372 65.2637 55.8543 65.5642 56.1706C65.8568 56.471 66.26 56.6134 66.7661 56.6134C67.1456 56.6134 67.4461 56.5501 67.6833 56.4236C67.9126 56.2813 68.1023 56.0599 68.2526 55.7594H68.3474L68.8535 56.0757C68.7033 56.4552 68.4502 56.7636 68.0944 56.9929C67.7544 57.2064 67.3116 57.3092 66.7661 57.3092C66.2363 57.3092 65.7856 57.2143 65.4061 57.0245C65.0423 56.8189 64.7577 56.5027 64.5521 56.0757C64.3623 55.6566 64.2675 55.1427 64.2675 54.5259C64.2675 53.9171 64.3702 53.4031 64.5837 52.9762C64.7893 52.5571 65.074 52.2487 65.4377 52.059C65.8172 51.8534 66.2363 51.7427 66.7028 51.7427C67.3986 51.7427 67.9363 51.9324 68.3158 52.312C68.7112 52.6915 68.9168 53.2766 68.9168 54.0515C68.9168 54.352 68.9009 54.5496 68.8851 54.6524L68.7902 54.7157ZM68.1261 54.0515C68.1261 53.4822 67.9995 53.071 67.7465 52.818C67.5093 52.5492 67.1614 52.4069 66.7028 52.4069C66.2363 52.4069 65.8647 52.5492 65.5958 52.818C65.3428 53.071 65.1847 53.4822 65.1214 54.0515H68.1261Z" fill="black"/>
<path d="M75.1542 54.1151H72.371V53.3877H75.1542V54.1151Z" fill="black"/>
<path d="M80.5756 57.3092C80.2356 57.3092 79.9193 57.2617 79.6268 57.1827C79.3263 57.1036 79.0733 56.985 78.8677 56.8348C78.6779 56.6687 78.5514 56.4869 78.4882 56.2971L78.9309 55.791H79.0575C79.2235 56.0678 79.4212 56.2813 79.6584 56.4236C79.9114 56.5501 80.2119 56.6134 80.5756 56.6134C80.9551 56.6134 81.2477 56.5422 81.4612 56.392C81.6668 56.2259 81.7775 56.0045 81.7775 55.7278C81.7775 55.5222 81.7142 55.3483 81.5877 55.2217C81.4612 55.0794 81.2556 54.9687 80.9868 54.9055L80.0696 54.6524C79.5793 54.5496 79.2235 54.3678 78.9942 54.1148C78.7807 53.8617 78.6779 53.5455 78.6779 53.1659C78.6779 52.8734 78.7491 52.6203 78.8993 52.4069C79.0416 52.2013 79.2551 52.0431 79.5319 51.9324C79.8244 51.8059 80.1644 51.7427 80.544 51.7427C81.05 51.7427 81.4375 51.8217 81.7142 51.9641C82.0068 52.0906 82.2282 52.2724 82.3784 52.5017L81.9356 52.9445H81.8407C81.6668 52.7548 81.477 52.6203 81.2714 52.5334C81.0816 52.4543 80.8365 52.4069 80.544 52.4069C80.1803 52.4069 79.9114 52.4701 79.7216 52.5966C79.5477 52.7231 79.4686 52.905 79.4686 53.1343C79.4686 53.3478 79.5319 53.5297 79.6584 53.672C79.7849 53.7985 80.0142 53.9092 80.3542 53.9883L81.2398 54.2096C81.6984 54.3203 82.0384 54.4943 82.2519 54.7473C82.4575 55.0003 82.5682 55.3324 82.5682 55.7278C82.5682 56.0441 82.4891 56.3208 82.3468 56.5501C82.1965 56.7873 81.9672 56.9771 81.6509 57.1194C81.3505 57.2459 80.9947 57.3092 80.5756 57.3092Z" fill="black"/>
<path d="M84.0385 57.2143V49.6553H84.8291V52.5967L84.924 52.6283C85.3036 52.0432 85.8571 51.7427 86.6003 51.7427C87.2329 51.7427 87.6915 51.9167 87.9919 52.2488C88.2845 52.565 88.4347 53.0632 88.4347 53.7353V57.2143H87.644V53.7669C87.644 53.4506 87.5966 53.1976 87.5175 53.0078C87.4305 52.8022 87.2961 52.652 87.1064 52.565C86.9324 52.4622 86.711 52.4069 86.4422 52.4069C85.9519 52.4069 85.5645 52.565 85.2719 52.8813C84.9715 53.1976 84.8291 53.7274 84.8291 54.4627V57.2143H84.0385Z" fill="black"/>
<path d="M91.5082 57.3092C90.9784 57.3092 90.5673 57.1748 90.2747 56.898C89.9742 56.6292 89.8319 56.2338 89.8319 55.7278C89.8319 55.4115 89.8952 55.1506 90.0217 54.9371C90.1482 54.7078 90.3459 54.5259 90.6226 54.3994C90.9152 54.2571 91.2868 54.1385 91.7296 54.0515C92.1091 53.9883 92.3938 53.9171 92.5835 53.8301C92.7891 53.751 92.9314 53.6641 92.9947 53.5771C93.0738 53.4743 93.1212 53.3399 93.1212 53.1659C93.1212 52.9366 93.0342 52.7548 92.8682 52.6283C92.6942 52.4859 92.4333 52.4069 92.0775 52.4069C91.7138 52.4069 91.4133 52.4859 91.1603 52.6283C90.9231 52.7548 90.7017 52.9603 90.4961 53.2292H90.4012L89.99 52.6915C90.2193 52.399 90.504 52.1697 90.844 51.9957C91.1998 51.8297 91.611 51.7427 92.0775 51.7427C92.71 51.7427 93.1686 51.885 93.4691 52.1538C93.7617 52.4306 93.9119 52.8101 93.9119 53.2924V56.1706C93.9119 56.471 94.0384 56.6134 94.2914 56.6134C94.3705 56.6134 94.4575 56.5976 94.5445 56.5501L94.6077 56.5817L94.7026 57.1194C94.6393 57.1669 94.5524 57.1985 94.4496 57.2143C94.3626 57.2301 94.2677 57.2459 94.1649 57.2459C93.8645 57.2459 93.6431 57.1827 93.5007 57.0562C93.3505 56.9296 93.2556 56.7399 93.2161 56.4869H93.1212C92.971 56.7636 92.7575 56.9771 92.4886 57.1194C92.2356 57.2459 91.9035 57.3092 91.5082 57.3092ZM91.698 56.6766C91.9905 56.6766 92.2435 56.6134 92.457 56.4869C92.6863 56.3445 92.8524 56.1389 92.9631 55.8859C93.0896 55.6329 93.1528 55.3483 93.1528 55.032V54.3362H93.058C92.9314 54.4231 92.7812 54.4943 92.6152 54.5576C92.4412 54.605 92.204 54.6445 91.8877 54.6841C91.5714 54.7315 91.3184 54.7948 91.1287 54.8738C90.9547 54.9608 90.8282 55.0794 90.7491 55.2217C90.6859 55.3483 90.6542 55.5222 90.6542 55.7278C90.6542 56.0441 90.7333 56.2892 90.9073 56.4552C91.097 56.6055 91.358 56.6766 91.698 56.6766Z" fill="black"/>
<path d="M95.8158 57.2137V51.8369H96.5749V52.6909H96.6697C96.9228 52.0821 97.3972 51.7737 98.093 51.7737C98.4488 51.7737 98.7256 51.8528 98.9153 51.9951L98.6939 52.6593L98.599 52.6909C98.3856 52.5881 98.1642 52.5328 97.9349 52.5328C97.5079 52.5328 97.1837 52.6909 96.9544 53.0072C96.7172 53.3234 96.6065 53.8532 96.6065 54.5886V57.2137H95.8158Z" fill="black"/>
<path d="M104.157 54.7157H100.457C100.473 55.372 100.631 55.8543 100.931 56.1706C101.224 56.471 101.627 56.6134 102.133 56.6134C102.513 56.6134 102.813 56.5501 103.05 56.4236C103.28 56.2813 103.47 56.0599 103.62 55.7594H103.715L104.221 56.0757C104.07 56.4552 103.817 56.7636 103.462 56.9929C103.122 57.2064 102.679 57.3092 102.133 57.3092C101.603 57.3092 101.153 57.2143 100.773 57.0245C100.41 56.8189 100.125 56.5027 99.9193 56.0757C99.7295 55.6566 99.6346 55.1427 99.6346 54.5259C99.6346 53.9171 99.7374 53.4031 99.9509 52.9762C100.157 52.5571 100.441 52.2487 100.805 52.059C101.184 51.8534 101.603 51.7427 102.07 51.7427C102.766 51.7427 103.303 51.9324 103.683 52.312C104.078 52.6915 104.284 53.2766 104.284 54.0515C104.284 54.352 104.268 54.5496 104.252 54.6524L104.157 54.7157ZM103.493 54.0515C103.493 53.4822 103.367 53.071 103.114 52.818C102.876 52.5492 102.529 52.4069 102.07 52.4069C101.603 52.4069 101.232 52.5492 100.963 52.818C100.71 53.071 100.552 53.4822 100.489 54.0515H103.493Z" fill="black"/>
</g>
<defs>
<clipPath id="clip0_1_80341">
<rect width="165.517" height="60" fill="white" transform="translate(0.585938)"/>
</clipPath>
</defs>
</svg>
