<svg width="14" height="14" viewBox="0 0 14 14" fill="none" xmlns="http://www.w3.org/2000/svg">
<path d="M11.6667 5.83335C11.6667 9.33335 7.00004 12.8334 7.00004 12.8334C7.00004 12.8334 2.33337 9.33335 2.33337 5.83335C2.33337 4.59568 2.82504 3.40869 3.70021 2.53352C4.57538 1.65835 5.76236 1.16669 7.00004 1.16669C8.23772 1.16669 9.4247 1.65835 10.2999 2.53352C11.175 3.40869 11.6667 4.59568 11.6667 5.83335Z" stroke="#374151" stroke-linecap="round" stroke-linejoin="round"/>
<path d="M7 7.58331C7.9665 7.58331 8.75 6.79981 8.75 5.83331C8.75 4.86681 7.9665 4.08331 7 4.08331C6.0335 4.08331 5.25 4.86681 5.25 5.83331C5.25 6.79981 6.0335 7.58331 7 7.58331Z" stroke="#374151" stroke-linecap="round" stroke-linejoin="round"/>
</svg>
