<svg width="25" height="24" viewBox="0 0 25 24" fill="none" xmlns="http://www.w3.org/2000/svg">
<g clip-path="url(#clip0_1_7502)">
<path d="M12.3 0C5.68326 0 0.300049 5.38314 0.300049 11.9999C0.300049 18.6167 5.68326 24 12.3 24C18.9168 24 24.3 18.6167 24.3 11.9999C24.3 5.38314 18.9169 0 12.3 0ZM12.3 22.614C6.4475 22.614 1.68605 17.8525 1.68605 11.9999C1.68605 6.14741 6.4475 1.386 12.3 1.386C18.1526 1.386 22.914 6.14741 22.914 11.9999C22.914 17.8525 18.1526 22.614 12.3 22.614Z" fill="#9333EA"/>
<path d="M18.9067 5.67585C18.7254 5.33864 18.3053 5.2124 17.9682 5.39362L10.1683 9.58766C10.0485 9.65205 9.95039 9.75017 9.88604 9.86993L5.69369 17.6681C5.54537 17.944 5.60314 18.2755 5.8138 18.4862C5.86051 18.533 5.91475 18.5737 5.97604 18.6066C6.18439 18.7186 6.42451 18.7128 6.62027 18.6126L6.62039 18.6128L6.62333 18.6112C6.62616 18.6098 6.62894 18.6082 6.63172 18.6067L14.4355 14.4157C14.5552 14.3514 14.6533 14.2533 14.7178 14.1335L18.8934 6.35464C18.9025 6.33891 18.9112 6.32303 18.9191 6.30672L18.9247 6.29625L18.924 6.29601C19.0127 6.10476 19.0142 5.87581 18.9067 5.67585ZM8.00212 16.3013L10.6662 11.346L12.9571 13.637L8.00212 16.3013ZM13.9377 12.6574L11.6467 10.3664L16.6016 7.70209" fill="#9333EA"/>
</g>
<defs>
<clipPath id="clip0_1_7502">
<rect width="24" height="24" fill="white" transform="translate(0.300049)"/>
</clipPath>
</defs>
</svg>
