<svg width="25" height="24" viewBox="0 0 25 24" fill="none" xmlns="http://www.w3.org/2000/svg">
<g clip-path="url(#clip0_1_7525)">
<path d="M12.3032 0C5.96241 0 0.803223 5.15919 0.803223 11.5C0.803223 13.7109 1.42279 15.8341 2.59722 17.664L0.854973 22.0139C0.748598 22.2813 0.81041 22.586 1.01454 22.7901C1.1511 22.9267 1.3351 23 1.52197 23C1.61254 23 1.70166 22.9828 1.78935 22.9483L6.13922 21.206C7.96916 22.3804 10.0923 23 12.3032 23C18.644 23 23.8032 17.8408 23.8032 11.5C23.8032 5.15919 18.644 0 12.3032 0ZM12.3032 21.5625C10.2533 21.5625 8.29116 20.9559 6.63085 19.8073C6.5101 19.7225 6.36635 19.6794 6.2226 19.6794C6.13204 19.6794 6.04147 19.6966 5.95522 19.7311L2.81285 20.9904L4.0721 17.848C4.16122 17.6238 4.13247 17.3693 3.99591 17.1724C2.84735 15.5121 2.24072 13.5499 2.24072 11.5C2.24072 5.95125 6.75447 1.4375 12.3032 1.4375C17.852 1.4375 22.3657 5.95125 22.3657 11.5C22.3657 17.0488 17.852 21.5625 12.3032 21.5625Z" fill="#6B7280"/>
</g>
<defs>
<clipPath id="clip0_1_7525">
<rect width="24" height="24" fill="white" transform="translate(0.100098)"/>
</clipPath>
</defs>
</svg>
