<svg width="22" height="24" viewBox="0 0 22 24" fill="none" xmlns="http://www.w3.org/2000/svg">
<path d="M11.0283 12.8372C7.48974 12.8372 4.60974 9.95721 4.60974 6.4186C4.60974 2.88 7.48974 0 11.0283 0C14.567 0 17.447 2.88 17.447 6.4186C17.447 9.95721 14.567 12.8372 11.0283 12.8372ZM11.0283 1.67442C8.41625 1.67442 6.28416 3.80651 6.28416 6.4186C6.28416 9.0307 8.41625 11.1628 11.0283 11.1628C13.6404 11.1628 15.7725 9.0307 15.7725 6.4186C15.7725 3.80651 13.6404 1.67442 11.0283 1.67442Z" fill="#6B7280"/>
<path d="M20.6172 24C20.1596 24 19.78 23.6205 19.78 23.1628C19.78 19.3117 15.8508 16.1861 11.0285 16.1861C6.20613 16.1861 2.27684 19.3117 2.27684 23.1628C2.27684 23.6205 1.8973 24 1.43963 24C0.981952 24 0.602417 23.6205 0.602417 23.1628C0.602417 18.3963 5.27962 14.5117 11.0285 14.5117C16.7773 14.5117 21.4544 18.3963 21.4544 23.1628C21.4544 23.6205 21.0749 24 20.6172 24Z" fill="#6B7280"/>
</svg>
