<svg width="24" height="22" viewBox="0 0 24 22" fill="none" xmlns="http://www.w3.org/2000/svg">
<path d="M12.2014 18.1371H3.51105C2.48495 18.1371 1.65055 17.3027 1.65055 16.2766V4.4056C1.65055 3.37951 2.48495 2.5451 3.51105 2.5451H5.2604V2.98325C5.2604 3.38354 5.58498 3.70812 5.98527 3.70812C6.38556 3.70812 6.71014 3.38354 6.71014 2.98325V2.5451H15.3796V2.98325C15.3796 3.38354 15.7042 3.70812 16.1045 3.70812C16.5048 3.70812 16.8293 3.38354 16.8293 2.98325V2.5451H18.5723C19.5975 2.5451 20.4328 3.37951 20.4328 4.4056V9.5844C20.4328 9.98469 20.7573 10.3093 21.1576 10.3093C21.5579 10.3093 21.8825 9.98469 21.8825 9.5844V4.4056C21.8825 2.58054 20.3973 1.09536 18.5723 1.09536H16.8293V0.724871C16.8293 0.324581 16.5048 0 16.1045 0C15.7042 0 15.3796 0.324581 15.3796 0.724871V1.09536H6.71014V0.724871C6.71014 0.324581 6.38556 0 5.98527 0C5.58498 0 5.2604 0.324581 5.2604 0.724871V1.09536H3.51105C1.68599 1.09536 0.200806 2.58054 0.200806 4.4056V16.2774C0.200806 18.1032 1.68599 19.5876 3.51105 19.5876H12.2014C12.6017 19.5876 12.9263 19.263 12.9263 18.8627C12.9263 18.4625 12.6017 18.1371 12.2014 18.1371Z" fill="#6B7280"/>
<path d="M5.83231 7.80664C5.37 7.80664 4.99548 8.18116 4.99548 8.64346C4.99548 9.10577 5.37 9.48029 5.83231 9.48029C6.29461 9.48029 6.66913 9.10577 6.66913 8.64346C6.66913 8.18116 6.29461 7.80664 5.83231 7.80664Z" fill="#6B7280"/>
<path d="M11.0424 7.80664C10.5801 7.80664 10.2056 8.18116 10.2056 8.64346C10.2056 9.10577 10.5801 9.48029 11.0424 9.48029C11.5047 9.48029 11.8792 9.10577 11.8792 8.64346C11.8792 8.18116 11.5039 7.80664 11.0424 7.80664Z" fill="#6B7280"/>
<path d="M15.4155 8.64346C15.4155 9.10577 15.79 9.48029 16.2523 9.48029C16.7147 9.48029 17.0892 9.10577 17.0892 8.64346C17.0892 8.18116 16.7147 7.80664 16.2523 7.80664C15.79 7.80664 15.4155 8.18116 15.4155 8.64346Z" fill="#6B7280"/>
<path d="M5.83231 12.3665C5.37 12.3665 4.99548 12.741 4.99548 13.2033C4.99548 13.6656 5.37 14.0401 5.83231 14.0401C6.29461 14.0401 6.66913 13.6656 6.66913 13.2033C6.66913 12.741 6.29461 12.3665 5.83231 12.3665Z" fill="#6B7280"/>
<path d="M11.0424 12.3665C10.5801 12.3665 10.2056 12.741 10.2056 13.2033C10.2056 13.6656 10.5801 14.0401 11.0424 14.0401C11.5047 14.0401 11.8792 13.6656 11.8792 13.2033C11.8792 12.741 11.5039 12.3665 11.0424 12.3665Z" fill="#6B7280"/>
<path d="M19.051 11.368C16.212 11.368 13.9012 13.678 13.9012 16.517C13.9012 19.3553 16.2112 21.666 19.051 21.666C21.8909 21.666 24.2009 19.3561 24.2009 16.517C24.2 13.6772 21.8901 11.368 19.051 11.368ZM19.051 20.2147C17.0117 20.2147 15.3518 18.5555 15.3518 16.5162C15.3518 14.4769 17.0117 12.817 19.051 12.817C21.0904 12.817 22.7503 14.4769 22.7503 16.5162C22.7503 18.5555 21.0904 20.2147 19.051 20.2147Z" fill="#6B7280"/>
<path d="M20.104 15.1988L18.5157 16.4786L18.1202 15.9736C17.8722 15.6587 17.4187 15.6039 17.1022 15.8512C16.7873 16.0985 16.7325 16.5535 16.9798 16.8692L17.8287 17.9517C17.9479 18.1039 18.1235 18.203 18.316 18.2247C18.3433 18.228 18.3707 18.2296 18.3989 18.2296C18.5632 18.2296 18.7243 18.1732 18.8532 18.0693L21.0133 16.3296C21.3258 16.0775 21.3741 15.6216 21.1236 15.31C20.8723 14.9983 20.4157 14.9467 20.104 15.1988Z" fill="#6B7280"/>
</svg>
