<svg width="29" height="24" viewBox="0 0 29 24" fill="none" xmlns="http://www.w3.org/2000/svg">
<path d="M26.9679 8.13776C26.8269 6.19979 25.9753 4.4148 24.5701 3.11148C23.1906 1.83203 21.3721 1.08463 19.4498 1.00685C17.5328 0.929701 15.6579 1.50929 14 2.68813C12.342 1.50929 10.467 0.929438 8.55019 1.00685C6.62779 1.08463 4.80935 1.83203 3.42988 3.11148C2.02464 4.41475 1.17306 6.19979 1.03207 8.13776C0.875192 10.2936 1.5862 12.6186 3.08821 14.8615C5.58952 18.5964 9.8846 20.9855 13.7141 22.9315C13.8039 22.9772 13.902 23 14 23C14.0981 23 14.1961 22.9772 14.286 22.9315C18.1155 20.9855 22.4106 18.5965 24.9119 14.8615C26.4138 12.6186 27.1248 10.2936 26.9679 8.13776ZM23.863 14.1591C21.5909 17.5519 17.6131 19.8136 13.9999 21.6606C10.3867 19.8136 6.40896 17.5519 4.13684 14.1591C1.09649 9.61921 2.22148 5.95357 4.28803 4.03689C5.42528 2.98221 7.08011 2.2529 8.91075 2.2529C10.422 2.2529 12.0531 2.75029 13.6103 3.97226C13.8391 4.15175 14.1608 4.15175 14.3895 3.97226C17.833 1.27006 21.6358 2.11149 23.7118 4.03689C25.7784 5.95357 26.9034 9.61926 23.863 14.1591Z" fill="#6B7280"/>
</svg>
